<svg width="241" height="204" viewBox="0 0 241 204" fill="none" xmlns="http://www.w3.org/2000/svg">
<path d="M20.4219 132V118.656C20.4219 118.354 20.4219 118.052 20.4219 117.75C20.4323 117.448 20.4844 116.151 20.5781 113.859C19.8385 116.661 19.2917 118.615 18.9375 119.719L14.9688 132H11.6875L7.71875 119.719L6.04688 113.859C6.17188 116.276 6.23438 117.875 6.23438 118.656V132H2.14062V109.984H8.3125L12.25 122.297L12.5938 123.484L13.3438 126.438L14.3281 122.906L18.375 109.984H24.5156V132H20.4219ZM28.7812 132V109.984H32.875V122.781C32.875 123.896 32.8333 125.328 32.75 127.078L42.3281 109.984H47.5156V132H43.4219V119.016C43.4219 118.203 43.4635 116.88 43.5469 115.047L34.0312 132H28.7812ZM70.0781 132V118.656C70.0781 118.354 70.0781 118.052 70.0781 117.75C70.0885 117.448 70.1406 116.151 70.2344 113.859C69.4948 116.661 68.9479 118.615 68.5938 119.719L64.625 132H61.3438L57.375 119.719L55.7031 113.859C55.8281 116.276 55.8906 117.875 55.8906 118.656V132H51.7969V109.984H57.9688L61.9062 122.297L62.25 123.484L63 126.438L63.9844 122.906L68.0312 109.984H74.1719V132H70.0781ZM78.4375 132V109.984H82.5312V122.781C82.5312 123.896 82.4896 125.328 82.4062 127.078L91.9844 109.984H97.1719V132H93.0781V119.016C93.0781 118.203 93.1198 116.88 93.2031 115.047L83.6875 132H78.4375ZM101.453 109.984H106.062V119.344C106.604 119.344 107.182 119.026 107.797 118.391C108.422 117.745 109.229 116.63 110.219 115.047L113.438 109.984H118.125L113.984 116.312C112.693 118.281 111.802 119.448 111.312 119.812L118.891 132H113.875L108.031 122C107.823 122.135 107.516 122.26 107.109 122.375C106.703 122.49 106.349 122.547 106.047 122.547V132H101.453V109.984ZM139.094 116.953C139.094 118.37 138.771 119.635 138.125 120.75C137.479 121.865 136.552 122.729 135.344 123.344C134.146 123.948 132.719 124.25 131.062 124.25H125.594V132H120.984V109.984H130.875C133.51 109.984 135.536 110.594 136.953 111.812C138.38 113.021 139.094 114.734 139.094 116.953ZM134.453 117.031C134.453 114.719 133.089 113.562 130.359 113.562H125.594V120.703H130.484C131.755 120.703 132.734 120.391 133.422 119.766C134.109 119.13 134.453 118.219 134.453 117.031ZM142.312 132V109.984H146.406V122.781C146.406 123.896 146.365 125.328 146.281 127.078L155.859 109.984H161.047V132H156.953V119.016C156.953 118.203 156.995 116.88 157.078 115.047L147.562 132H142.312ZM183.438 116.953C183.438 118.37 183.115 119.635 182.469 120.75C181.823 121.865 180.896 122.729 179.688 123.344C178.49 123.948 177.062 124.25 175.406 124.25H169.938V132H165.328V109.984H175.219C177.854 109.984 179.88 110.594 181.297 111.812C182.724 113.021 183.438 114.734 183.438 116.953ZM178.797 117.031C178.797 114.719 177.432 113.562 174.703 113.562H169.938V120.703H174.828C176.099 120.703 177.078 120.391 177.766 119.766C178.453 119.13 178.797 118.219 178.797 117.031ZM189.422 132.312C188.682 132.312 187.948 132.219 187.219 132.031C186.49 131.854 185.906 131.635 185.469 131.375L186.75 127.531C187.677 127.969 188.51 128.188 189.25 128.188C189.74 128.188 190.156 128.094 190.5 127.906C190.854 127.719 191.182 127.422 191.484 127.016C191.797 126.599 192.234 125.776 192.797 124.547L184.109 109.984H188.906L194.969 120.609L199.625 109.984H204.297L196.094 127.031C195.375 128.531 194.714 129.63 194.109 130.328C193.516 131.016 192.844 131.521 192.094 131.844C191.354 132.156 190.464 132.312 189.422 132.312ZM206.125 132V109.984H210.219V122.781C210.219 123.896 210.177 125.328 210.094 127.078L219.672 109.984H224.859V132H220.766V119.016C220.766 118.203 220.807 116.88 220.891 115.047L211.375 132H206.125ZM215.594 108.344C213.51 108.344 211.948 107.917 210.906 107.062C209.875 106.208 209.318 104.865 209.234 103.031H212.734C212.839 105.104 213.792 106.141 215.594 106.141C217.396 106.141 218.349 105.104 218.453 103.031H221.953C221.87 104.875 221.307 106.224 220.266 107.078C219.234 107.922 217.677 108.344 215.594 108.344Z" fill="white"/>
<path d="M3.75 193.219L2.76562 198H1.47656L2.46094 193.219H0.105469V191.953H2.74219L3.65625 187.629H0.703125V186.363H3.91406L4.95703 181.582H6.24609L5.21484 186.363H9.46875L10.5 181.582H11.7891L10.7578 186.363H13.2305V187.629H10.5L9.58594 191.953H12.6328V193.219H9.31641L8.28516 198H6.99609L8.00391 193.219H3.75ZM4.04297 191.953H8.28516L9.19922 187.629H4.98047L4.04297 191.953ZM17.3086 196.453C17.0195 197.062 16.6602 197.512 16.2305 197.801C15.8086 198.09 15.2617 198.234 14.5898 198.234C14.3945 198.234 14.2031 198.223 14.0156 198.199C13.8359 198.176 13.6602 198.137 13.4883 198.082V196.57C13.6914 196.641 13.957 196.676 14.2852 196.676C14.4336 196.676 14.6016 196.629 14.7891 196.535C14.9844 196.434 15.1914 196.184 15.4102 195.785C15.6289 195.379 15.8398 194.719 16.043 193.805C16.1055 193.516 16.168 193.184 16.2305 192.809C16.3008 192.434 16.3789 191.941 16.4648 191.332C16.5508 190.723 16.6602 189.938 16.793 188.977C16.9258 188.008 17.0898 186.789 17.2852 185.32H25.6992V198H23.5781V186.855H19.1836C18.957 188.559 18.7539 189.984 18.5742 191.133C18.3945 192.281 18.2422 193.152 18.1172 193.746C17.875 194.941 17.6055 195.844 17.3086 196.453ZM30.6094 192.105C30.6094 193.559 30.9102 194.68 31.5117 195.469C32.1133 196.258 32.9922 196.652 34.1484 196.652C35.0625 196.652 35.793 196.469 36.3398 196.102C36.8945 195.734 37.2695 195.27 37.4648 194.707L39.3164 195.234C38.5586 197.234 36.8359 198.234 34.1484 198.234C32.2734 198.234 30.8438 197.676 29.8594 196.559C28.8828 195.441 28.3945 193.781 28.3945 191.578C28.3945 189.484 28.8828 187.879 29.8594 186.762C30.8438 185.645 32.2461 185.086 34.0664 185.086C35.9336 185.086 37.332 185.648 38.2617 186.773C39.1914 187.898 39.6562 189.582 39.6562 191.824V192.105H30.6094ZM37.4766 190.488C37.3594 189.152 37.0195 188.18 36.457 187.57C35.8945 186.953 35.0859 186.645 34.0312 186.645C33.0078 186.645 32.1953 186.988 31.5938 187.676C31 188.355 30.6797 189.293 30.6328 190.488H37.4766ZM44.4609 192.41V198H42.3516V185.32H44.4609V190.875C44.6953 190.875 44.9062 190.844 45.0938 190.781C45.2812 190.711 45.4766 190.578 45.6797 190.383C45.7812 190.281 45.8906 190.164 46.0078 190.031C46.125 189.891 46.2461 189.73 46.3711 189.551C46.5039 189.371 46.793 188.93 47.2383 188.227C47.6836 187.516 48.2852 186.547 49.043 185.32H51.2461L48.7148 189.129C47.9961 190.191 47.4961 190.836 47.2148 191.062L51.3516 198H49.0078L45.75 192.176C45.6016 192.238 45.3984 192.293 45.1406 192.34C44.8906 192.387 44.6641 192.41 44.4609 192.41ZM52.8984 198V185.32H55.0078V196.465H60.5977V185.32H62.707V196.465H64.4297V202.781H62.5195V198H52.8984ZM74.8359 187.77L68.9062 198H66.6562V185.32H68.6953V192.258C68.6953 192.586 68.6875 192.934 68.6719 193.301C68.6562 193.668 68.6406 194.039 68.625 194.414C68.6094 194.781 68.5938 195.145 68.5781 195.504L74.4258 185.32H76.7344V198H74.7188V190.266C74.7188 190.078 74.7227 189.82 74.7305 189.492C74.7461 189.156 74.7617 188.824 74.7773 188.496C74.8008 188.168 74.8203 187.926 74.8359 187.77ZM84.668 192.633L80.9766 198H78.5977L82.6289 192.48C81.6602 192.277 80.9297 191.871 80.4375 191.262C79.9531 190.652 79.7109 189.84 79.7109 188.824C79.7109 187.66 80.1328 186.785 80.9766 186.199C81.8203 185.613 83.0508 185.32 84.668 185.32H89.7305V198H87.6211V192.633H84.668ZM84.6562 191.168H87.6211V186.809H84.8789C83.8633 186.809 83.1211 186.988 82.6523 187.348C82.1836 187.707 81.9492 188.25 81.9492 188.977C81.9492 189.711 82.1562 190.262 82.5703 190.629C82.9922 190.988 83.6875 191.168 84.6562 191.168Z" fill="white"/>
<path d="M50.7188 78.2031V88H6.04688V78.2031H22.4062V33.1562L6.5625 43.0469V32.6875L23.1094 21.9531H35.5781V78.2031H50.7188ZM103.875 69.3906C103.875 75.5781 101.828 80.3906 97.7344 83.8281C93.6406 87.2344 87.7969 88.9375 80.2031 88.9375C72.6719 88.9375 66.8281 87.2344 62.6719 83.8281C58.5469 80.4219 56.4844 75.6406 56.4844 69.4844C56.4844 65.2656 57.7031 61.7188 60.1406 58.8438C62.5781 55.9375 65.8438 54.1406 69.9375 53.4531V53.2656C66.375 52.4844 63.5 50.7188 61.3125 47.9688C59.125 45.2188 58.0312 42.0469 58.0312 38.4531C58.0312 33.0469 59.9375 28.7813 63.75 25.6562C67.5938 22.5312 73.0156 20.9688 80.0156 20.9688C87.1719 20.9688 92.6562 22.5 96.4688 25.5625C100.312 28.5938 102.234 32.9219 102.234 38.5469C102.234 42.1406 101.141 45.2969 98.9531 48.0156C96.7969 50.7344 93.8906 52.4531 90.2344 53.1719V53.3594C94.4844 54.0469 97.8125 55.7969 100.219 58.6094C102.656 61.3906 103.875 64.9844 103.875 69.3906ZM88.6875 39.25C88.6875 33.2188 85.7969 30.2031 80.0156 30.2031C74.3281 30.2031 71.4844 33.2188 71.4844 39.25C71.4844 42.4062 72.2031 44.7812 73.6406 46.375C75.0781 47.9375 77.2344 48.7188 80.1094 48.7188C82.9844 48.7188 85.125 47.9844 86.5312 46.5156C87.9688 45.0469 88.6875 42.625 88.6875 39.25ZM90.2344 68.3125C90.2344 64.875 89.375 62.2969 87.6562 60.5781C85.9375 58.8281 83.3594 57.9531 79.9219 57.9531C76.7344 57.9531 74.2812 58.8594 72.5625 60.6719C70.875 62.4844 70.0312 65.0938 70.0312 68.5C70.0312 72.375 70.875 75.2031 72.5625 76.9844C74.25 78.7656 76.8281 79.6562 80.2969 79.6562C83.7031 79.6562 86.2031 78.7656 87.7969 76.9844C89.4219 75.2031 90.2344 72.3125 90.2344 68.3125ZM132.609 18.4375L119.203 89.9219H107.812L121.453 18.4375H132.609ZM183.047 54.9531C183.047 66.1094 181.125 74.5625 177.281 80.3125C173.469 86.0625 167.734 88.9375 160.078 88.9375C152.516 88.9375 146.844 86.1094 143.062 80.4531C139.281 74.7656 137.391 66.2656 137.391 54.9531C137.391 43.3594 139.188 34.7969 142.781 29.2656C146.406 23.7344 152.297 20.9688 160.453 20.9688C168.266 20.9688 173.984 23.7969 177.609 29.4531C181.234 35.1094 183.047 43.6094 183.047 54.9531ZM169.828 54.9531C169.828 49.0156 169.562 44.3281 169.031 40.8906C168.5 37.4219 167.547 34.9531 166.172 33.4844C164.797 32.0156 162.859 31.2812 160.359 31.2812C157.703 31.2812 155.656 32.0312 154.219 33.5312C152.812 35 151.844 37.4688 151.312 40.9375C150.812 44.375 150.562 49.0469 150.562 54.9531C150.562 60.8594 150.828 65.5469 151.359 69.0156C151.922 72.4531 152.891 74.9062 154.266 76.375C155.672 77.8438 157.641 78.5781 160.172 78.5781C163.922 78.5781 166.469 76.7656 167.812 73.1406C169.156 69.5156 169.828 63.4531 169.828 54.9531ZM236.203 32.4062C233.234 37.0938 230.422 41.6406 227.766 46.0469C225.141 50.4219 222.844 54.8438 220.875 59.3125C218.906 63.75 217.344 68.3281 216.188 73.0469C215.062 77.7656 214.5 82.75 214.5 88H200.766C200.766 82.9688 201.312 78.2031 202.406 73.7031C203.5 69.1719 205.234 64.4062 207.609 59.4062C209.172 56.1562 211.234 52.4375 213.797 48.25C216.359 44.0625 219.75 38.9062 223.969 32.7812H191.156V21.9531H236.203V32.4062Z" fill="white"/>
</svg>
