<svg width="312" height="109" viewBox="0 0 312 109" fill="none" xmlns="http://www.w3.org/2000/svg">
<path d="M20.7982 68.2704C15.0249 68.2704 10.5884 66.5668 7.48879 63.1596C4.38916 59.7287 2.83935 54.7362 2.83935 48.182C2.83935 41.8408 4.41282 36.9666 7.55977 33.5593C10.7067 30.1521 15.1669 28.4485 20.9402 28.4485C26.4533 28.4485 30.665 30.2823 33.5753 33.9497C36.4856 37.5936 37.9408 42.941 37.9408 49.9921V50.276H13.3095C13.3095 54.0145 13.9956 56.842 15.368 58.7586C16.764 60.6515 18.7397 61.5979 21.2951 61.5979C24.8206 61.5979 27.0448 60.0718 27.9676 57.0195L37.3729 57.8358C34.6519 64.7922 29.127 68.2704 20.7982 68.2704ZM20.7982 34.7306C18.4558 34.7306 16.6457 35.5469 15.368 37.1795C14.1139 38.8121 13.4514 41.0954 13.3804 44.0294H28.287C28.0977 40.9298 27.3524 38.611 26.051 37.073C24.7497 35.5114 22.9987 34.7306 20.7982 34.7306ZM45.5361 67.5605V38.1733C45.5361 36.0674 45.5006 34.3165 45.4296 32.9205C45.3823 31.5008 45.3231 30.2468 45.2521 29.1583H54.764C54.8349 29.5842 54.9296 30.8856 55.0479 33.0624C55.1662 35.2156 55.2254 36.6471 55.2254 37.357H55.3673C56.3374 34.6596 57.2011 32.7667 57.9582 31.6783C58.7154 30.5662 59.6145 29.7499 60.6556 29.2293C61.6967 28.6851 62.9981 28.413 64.5597 28.413C65.8374 28.413 66.8667 28.5905 67.6475 28.9454V37.286C66.0385 36.9311 64.6189 36.7536 63.3885 36.7536C60.9041 36.7536 58.9638 37.7592 57.5678 39.7704C56.1955 41.7816 55.5093 44.7629 55.5093 48.7144V67.5605H45.5361ZM73.8586 67.5605V38.1733C73.8586 36.0674 73.8231 34.3165 73.7521 32.9205C73.7048 31.5008 73.6456 30.2468 73.5747 29.1583H83.0865C83.1575 29.5842 83.2521 30.8856 83.3704 33.0624C83.4887 35.2156 83.5479 36.6471 83.5479 37.357H83.6898C84.6599 34.6596 85.5236 32.7667 86.2807 31.6783C87.0379 30.5662 87.937 29.7499 88.9781 29.2293C90.0192 28.6851 91.3206 28.413 92.8822 28.413C94.1599 28.413 95.1892 28.5905 95.97 28.9454V37.286C94.3611 36.9311 92.9414 36.7536 91.711 36.7536C89.2266 36.7536 87.2863 37.7592 85.8903 39.7704C84.518 41.7816 83.8318 44.7629 83.8318 48.7144V67.5605H73.8586ZM138.667 48.324C138.667 54.5469 136.939 59.4329 133.485 62.9821C130.03 66.5076 125.251 68.2704 119.146 68.2704C113.16 68.2704 108.463 66.4958 105.056 62.9466C101.649 59.3974 99.9451 54.5232 99.9451 48.324C99.9451 42.1484 101.649 37.2978 105.056 33.7723C108.463 30.2231 113.231 28.4485 119.359 28.4485C125.629 28.4485 130.409 30.1639 133.698 33.5948C137.01 37.002 138.667 41.9118 138.667 48.324ZM128.232 48.324C128.232 43.7573 127.487 40.4448 125.996 38.3862C124.505 36.3277 122.34 35.2984 119.501 35.2984C113.444 35.2984 110.415 39.6403 110.415 48.324C110.415 52.6066 111.149 55.8719 112.616 58.1197C114.106 60.3439 116.248 61.4559 119.04 61.4559C125.168 61.4559 128.232 57.0786 128.232 48.324ZM146.617 67.5605V38.1733C146.617 36.0674 146.581 34.3165 146.51 32.9205C146.463 31.5008 146.404 30.2468 146.333 29.1583H155.845C155.916 29.5842 156.01 30.8856 156.129 33.0624C156.247 35.2156 156.306 36.6471 156.306 37.357H156.448C157.418 34.6596 158.282 32.7667 159.039 31.6783C159.796 30.5662 160.695 29.7499 161.736 29.2293C162.778 28.6851 164.079 28.413 165.641 28.413C166.918 28.413 167.948 28.5905 168.728 28.9454V37.286C167.119 36.9311 165.7 36.7536 164.469 36.7536C161.985 36.7536 160.045 37.7592 158.649 39.7704C157.276 41.7816 156.59 44.7629 156.59 48.7144V67.5605H146.617ZM223.457 57.3744V67.5605H213.945V57.3744H191.195V49.8856L212.312 17.5525H223.457V49.9566H230.129V57.3744H223.457ZM213.945 33.5948C213.945 32.3171 213.98 30.9329 214.051 29.4423C214.146 27.9516 214.217 26.9933 214.264 26.5674C213.649 27.8925 212.537 29.809 210.928 32.3171L199.322 49.9566H213.945V33.5948ZM267.999 42.5388C267.999 50.9858 266.544 57.3862 263.634 61.7399C260.747 66.0935 256.405 68.2704 250.608 68.2704C239.156 68.2704 233.43 59.6932 233.43 42.5388C233.43 36.5525 234.057 31.6664 235.311 27.8806C236.565 24.0948 238.446 21.3028 240.954 19.5046C243.462 17.7063 246.775 16.8072 250.892 16.8072C256.807 16.8072 261.137 18.9485 263.882 23.2312C266.627 27.5139 267.999 33.9497 267.999 42.5388ZM257.99 42.5388C257.99 37.9248 257.766 34.3402 257.316 31.7847C256.867 29.2293 256.145 27.3956 255.151 26.2835C254.157 25.1714 252.714 24.6154 250.821 24.6154C248.81 24.6154 247.284 25.1833 246.243 26.319C245.225 27.4311 244.492 29.2648 244.042 31.8202C243.616 34.352 243.403 37.9248 243.403 42.5388C243.403 47.1054 243.628 50.6782 244.078 53.2573C244.551 55.8127 245.284 57.6465 246.278 58.7586C247.296 59.8706 248.763 60.4267 250.679 60.4267C252.572 60.4267 254.027 59.847 255.045 58.6876C256.086 57.5045 256.831 55.6234 257.281 53.0444C257.754 50.4653 257.99 46.9634 257.99 42.5388ZM304.378 57.3744V67.5605H294.866V57.3744H272.116V49.8856L293.234 17.5525H304.378V49.9566H311.051V57.3744H304.378ZM294.866 33.5948C294.866 32.3171 294.902 30.9329 294.973 29.4423C295.068 27.9516 295.139 26.9933 295.186 26.5674C294.571 27.8925 293.459 29.809 291.85 32.3171L280.244 49.9566H294.866V33.5948Z" fill="white"/>
<path d="M5.67972 92.1878C7.02244 92.1878 8.02948 92.4228 8.70084 92.8927C9.3722 93.3627 9.70788 94.0374 9.70788 94.9169C9.70788 95.5412 9.51655 96.0615 9.13387 96.4778C8.75119 96.894 8.19396 97.1726 7.46218 97.3136V97.3841C8.32824 97.4983 8.9761 97.7735 9.40577 98.2099C9.84216 98.6463 10.0603 99.2237 10.0603 99.942C10.0603 100.929 9.6911 101.701 8.9526 102.258C8.22082 102.809 7.20706 103.084 5.91134 103.084H1.43V92.1878H5.67972ZM3.24267 101.745H5.61929C6.54577 101.745 7.19699 101.604 7.57296 101.322C7.94892 101.033 8.1369 100.576 8.1369 99.9521C8.1369 99.274 7.93549 98.7973 7.53267 98.5221C7.13657 98.2401 6.4585 98.0991 5.49845 98.0991H3.24267V101.745ZM3.24267 93.5674V96.79H5.41789C6.27723 96.79 6.88817 96.6691 7.2507 96.4274C7.61995 96.1857 7.80457 95.7628 7.80457 95.1586C7.80457 94.608 7.63338 94.2052 7.29098 93.9501C6.94859 93.695 6.37122 93.5674 5.55887 93.5674H3.24267ZM21.3191 97.6258C21.3191 99.5325 20.8995 100.952 20.0603 101.886C19.2211 102.819 18.0026 103.285 16.4047 103.285C14.8136 103.285 13.6118 102.802 12.7995 101.835C11.9872 100.862 11.581 99.4586 11.581 97.6258C11.581 93.8662 13.209 91.9864 16.4651 91.9864C18.1301 91.9864 19.3553 92.4463 20.1408 93.366C20.9263 94.2791 21.3191 95.699 21.3191 97.6258ZM19.4158 97.6258C19.4158 96.122 19.1909 95.031 18.741 94.3529C18.298 93.6681 17.5494 93.3257 16.4953 93.3257C15.4346 93.3257 14.6659 93.6749 14.1892 94.3731C13.7193 95.0646 13.4843 96.1488 13.4843 97.6258C13.4843 99.0625 13.7159 100.143 14.1791 100.868C14.6491 101.587 15.3842 101.946 16.3846 101.946C17.4722 101.946 18.2476 101.597 18.7108 100.899C19.1808 100.2 19.4158 99.1095 19.4158 97.6258ZM22.0844 92.1878H30.8256V93.507H27.3613V103.084H25.5487V93.507H22.0844V92.1878ZM40.1608 92.1878V96.8H45.0651V92.1878H46.8778V103.084H45.0651V98.1193H40.1608V103.084H38.3482V92.1878H40.1608ZM51.0973 98.0186C51.0973 99.2673 51.3558 100.231 51.8727 100.909C52.3897 101.587 53.145 101.926 54.1386 101.926C54.9241 101.926 55.5518 101.768 56.0217 101.453C56.4984 101.137 56.8207 100.738 56.9885 100.254L58.5796 100.707C57.9284 102.426 56.4481 103.285 54.1386 103.285C52.5273 103.285 51.2987 102.805 50.4528 101.845C49.6136 100.885 49.194 99.4586 49.194 97.5654C49.194 95.7661 49.6136 94.3865 50.4528 93.4265C51.2987 92.4664 52.5038 91.9864 54.0681 91.9864C57.2705 91.9864 58.8717 93.9165 58.8717 97.7769V98.0186H51.0973ZM56.9986 96.6288C56.8979 95.4808 56.6058 94.645 56.1224 94.1213C55.6391 93.5909 54.9442 93.3257 54.0379 93.3257C53.1584 93.3257 52.4602 93.6211 51.9432 94.2119C51.433 94.796 51.1577 95.6017 51.1174 96.6288H56.9986ZM63.9472 103.285C62.826 103.285 61.9331 103.077 61.2684 102.661C60.6105 102.238 60.1305 101.594 59.8284 100.728L61.4296 100.284C61.7854 101.385 62.638 101.936 63.9874 101.936C64.6319 101.936 65.1422 101.778 65.5181 101.463C65.9008 101.147 66.0922 100.684 66.0922 100.073C66.0922 98.7302 64.9811 98.0588 62.7588 98.0588V96.6792C63.8397 96.6792 64.6353 96.5382 65.1455 96.2562C65.6558 95.9743 65.9109 95.5379 65.9109 94.9471C65.9109 94.4503 65.7431 94.0575 65.4074 93.7688C65.0784 93.4802 64.6017 93.3358 63.9774 93.3358C63.3799 93.3358 62.8898 93.46 62.5071 93.7084C62.1311 93.9568 61.9029 94.316 61.8223 94.786L60.1909 94.5846C60.4997 92.8524 61.7652 91.9864 63.9874 91.9864C65.1153 91.9864 66.025 92.2549 66.7165 92.792C67.408 93.3224 67.7538 94.0105 67.7538 94.8565C67.7538 95.5345 67.5087 96.1018 67.0186 96.5584C66.5353 97.0149 65.9478 97.2734 65.2563 97.3338V97.3539C66.0687 97.4412 66.73 97.7265 67.2402 98.2099C67.7571 98.6866 68.0156 99.2908 68.0156 100.023C68.0156 101.043 67.6531 101.842 66.928 102.419C66.2096 102.997 65.216 103.285 63.9472 103.285ZM72.9703 103.285C71.8759 103.285 71.0535 102.997 70.503 102.419C69.9525 101.842 69.6772 101.05 69.6772 100.043C69.6772 98.9148 70.0465 98.0488 70.785 97.4445C71.5302 96.8403 72.7286 96.5181 74.3801 96.4778L76.8272 96.4375V95.8434C76.8272 94.9572 76.6392 94.3227 76.2633 93.94C75.8873 93.5574 75.2965 93.366 74.4909 93.366C73.6785 93.366 73.0877 93.5037 72.7185 93.7789C72.3492 94.0542 72.1277 94.4939 72.0538 95.0981L70.1606 94.9269C70.4694 92.9666 71.9263 91.9864 74.5312 91.9864C75.9007 91.9864 76.9313 92.3019 77.6228 92.933C78.3143 93.5574 78.66 94.4637 78.66 95.652V100.345C78.66 100.882 78.7305 101.288 78.8715 101.563C79.0125 101.832 79.2811 101.966 79.6772 101.966C79.8517 101.966 80.0498 101.943 80.2713 101.896V103.024C79.8148 103.131 79.3482 103.185 78.8715 103.185C78.2002 103.185 77.7101 103.01 77.4012 102.661C77.0991 102.305 76.9279 101.751 76.8876 100.999H76.8272C76.364 101.832 75.8235 102.423 75.2059 102.772C74.5949 103.114 73.8497 103.285 72.9703 103.285ZM73.3831 101.926C74.0478 101.926 74.6386 101.775 75.1555 101.473C75.6725 101.171 76.0787 100.758 76.3741 100.234C76.6762 99.7037 76.8272 99.1599 76.8272 98.6026V97.7064L74.8434 97.7467C73.9907 97.7601 73.3429 97.8474 72.8998 98.0085C72.4634 98.1696 72.1277 98.418 71.8927 98.7537C71.6577 99.0894 71.5403 99.5291 71.5403 100.073C71.5403 100.664 71.698 101.12 72.0136 101.443C72.3358 101.765 72.7923 101.926 73.3831 101.926ZM88.6801 93.507H85.5986C85.3502 95.3331 85.0749 96.9242 84.7728 98.2804C84.4707 99.6298 84.1048 100.791 83.6751 101.765H88.6801V93.507ZM91.9631 107.193H90.3216V103.084H82.1243V107.193H80.4828V101.765H81.6812C82.1847 100.926 82.6211 99.7339 82.9903 98.1898C83.3596 96.6456 83.6986 94.645 84.0074 92.1878H90.4928V101.765H91.9631V107.193ZM96.4948 103.285C95.4004 103.285 94.578 102.997 94.0275 102.419C93.477 101.842 93.2017 101.05 93.2017 100.043C93.2017 98.9148 93.571 98.0488 94.3095 97.4445C95.0547 96.8403 96.2531 96.5181 97.9046 96.4778L100.352 96.4375V95.8434C100.352 94.9572 100.164 94.3227 99.7878 93.94C99.4118 93.5574 98.821 93.366 98.0154 93.366C97.203 93.366 96.6122 93.5037 96.243 93.7789C95.8737 94.0542 95.6522 94.4939 95.5783 95.0981L93.6851 94.9269C93.9939 92.9666 95.4508 91.9864 98.0557 91.9864C99.4252 91.9864 100.456 92.3019 101.147 92.933C101.839 93.5574 102.185 94.4637 102.185 95.652V100.345C102.185 100.882 102.255 101.288 102.396 101.563C102.537 101.832 102.806 101.966 103.202 101.966C103.376 101.966 103.574 101.943 103.796 101.896V103.024C103.339 103.131 102.873 103.185 102.396 103.185C101.725 103.185 101.235 103.01 100.926 102.661C100.624 102.305 100.452 101.751 100.412 100.999H100.352C99.8885 101.832 99.348 102.423 98.7304 102.772C98.1194 103.114 97.3742 103.285 96.4948 103.285ZM96.9076 101.926C97.5723 101.926 98.1631 101.775 98.68 101.473C99.197 101.171 99.6032 100.758 99.8986 100.234C100.201 99.7037 100.352 99.1599 100.352 98.6026V97.7064L98.3679 97.7467C97.5152 97.7601 96.8674 97.8474 96.4243 98.0085C95.9879 98.1696 95.6522 98.418 95.4172 98.7537C95.1822 99.0894 95.0648 99.5291 95.0648 100.073C95.0648 100.664 95.2225 101.12 95.5381 101.443C95.8603 101.765 96.3168 101.926 96.9076 101.926ZM106.384 92.1878V96.2361C106.384 97.3237 106.941 97.8675 108.056 97.8675C108.794 97.8675 109.721 97.7097 110.835 97.3942V92.1878H112.648V103.084H110.835V98.4415L110.05 98.7436C109.069 99.1196 108.156 99.3076 107.31 99.3076C106.444 99.3076 105.77 99.0491 105.286 98.5322C104.81 98.0085 104.571 97.2734 104.571 96.3267V92.1878H106.384ZM118.267 103.285C117.173 103.285 116.35 102.997 115.8 102.419C115.249 101.842 114.974 101.05 114.974 100.043C114.974 98.9148 115.343 98.0488 116.082 97.4445C116.827 96.8403 118.025 96.5181 119.677 96.4778L122.124 96.4375V95.8434C122.124 94.9572 121.936 94.3227 121.56 93.94C121.184 93.5574 120.593 93.366 119.788 93.366C118.975 93.366 118.384 93.5037 118.015 93.7789C117.646 94.0542 117.424 94.4939 117.351 95.0981L115.457 94.9269C115.766 92.9666 117.223 91.9864 119.828 91.9864C121.197 91.9864 122.228 92.3019 122.92 92.933C123.611 93.5574 123.957 94.4637 123.957 95.652V100.345C123.957 100.882 124.027 101.288 124.168 101.563C124.309 101.832 124.578 101.966 124.974 101.966C125.148 101.966 125.347 101.943 125.568 101.896V103.024C125.112 103.131 124.645 103.185 124.168 103.185C123.497 103.185 123.007 103.01 122.698 102.661C122.396 102.305 122.225 101.751 122.184 100.999H122.124C121.661 101.832 121.12 102.423 120.503 102.772C119.892 103.114 119.146 103.285 118.267 103.285ZM118.68 101.926C119.345 101.926 119.935 101.775 120.452 101.473C120.969 101.171 121.375 100.758 121.671 100.234C121.973 99.7037 122.124 99.1599 122.124 98.6026V97.7064L120.14 97.7467C119.287 97.7601 118.64 97.8474 118.197 98.0085C117.76 98.1696 117.424 98.418 117.189 98.7537C116.954 99.0894 116.837 99.5291 116.837 100.073C116.837 100.664 116.995 101.12 117.31 101.443C117.633 101.765 118.089 101.926 118.68 101.926ZM127.461 103.084V100.879H129.425V103.084H127.461ZM133.201 103.084V100.879H135.165V103.084H133.201ZM138.942 103.084V100.879H140.905V103.084H138.942ZM151.781 92.1878V96.8H156.686V92.1878H158.498V103.084H156.686V98.1193H151.781V103.084H149.969V92.1878H151.781ZM162.718 98.0186C162.718 99.2673 162.976 100.231 163.493 100.909C164.01 101.587 164.765 101.926 165.759 101.926C166.545 101.926 167.172 101.768 167.642 101.453C168.119 101.137 168.441 100.738 168.609 100.254L170.2 100.707C169.549 102.426 168.069 103.285 165.759 103.285C164.148 103.285 162.919 102.805 162.073 101.845C161.234 100.885 160.815 99.4586 160.815 97.5654C160.815 95.7661 161.234 94.3865 162.073 93.4265C162.919 92.4664 164.124 91.9864 165.689 91.9864C168.891 91.9864 170.492 93.9165 170.492 97.7769V98.0186H162.718ZM168.619 96.6288C168.518 95.4808 168.226 94.645 167.743 94.1213C167.26 93.5909 166.565 93.3257 165.658 93.3257C164.779 93.3257 164.081 93.6211 163.564 94.2119C163.054 94.796 162.778 95.6017 162.738 96.6288H168.619ZM187.763 97.5855C187.763 101.385 186.427 103.285 183.755 103.285C182.077 103.285 180.949 102.654 180.371 101.392H180.321C180.348 101.446 180.361 102.017 180.361 103.104V107.364H178.549V94.4134C178.549 93.2922 178.528 92.5503 178.488 92.1878H180.24C180.247 92.2146 180.257 92.312 180.271 92.4798C180.284 92.641 180.297 92.8927 180.311 93.2351C180.331 93.5775 180.341 93.8125 180.341 93.94H180.381C180.704 93.2687 181.13 92.7786 181.66 92.4698C182.191 92.1542 182.889 91.9965 183.755 91.9965C185.098 91.9965 186.101 92.4463 186.766 93.3459C187.431 94.2455 187.763 95.6587 187.763 97.5855ZM185.86 97.6258C185.86 96.1085 185.655 95.0243 185.245 94.3731C184.836 93.7219 184.185 93.3962 183.292 93.3962C182.573 93.3962 182.009 93.5473 181.6 93.8494C181.197 94.1515 180.888 94.6248 180.673 95.2693C180.465 95.9071 180.361 96.7396 180.361 97.7668C180.361 99.1968 180.589 100.251 181.046 100.929C181.503 101.607 182.244 101.946 183.272 101.946C184.171 101.946 184.826 101.617 185.235 100.959C185.652 100.294 185.86 99.1834 185.86 97.6258ZM192.808 103.285C191.714 103.285 190.892 102.997 190.341 102.419C189.79 101.842 189.515 101.05 189.515 100.043C189.515 98.9148 189.884 98.0488 190.623 97.4445C191.368 96.8403 192.567 96.5181 194.218 96.4778L196.665 96.4375V95.8434C196.665 94.9572 196.477 94.3227 196.101 93.94C195.725 93.5574 195.135 93.366 194.329 93.366C193.517 93.366 192.926 93.5037 192.556 93.7789C192.187 94.0542 191.966 94.4939 191.892 95.0981L189.999 94.9269C190.307 92.9666 191.764 91.9864 194.369 91.9864C195.739 91.9864 196.769 92.3019 197.461 92.933C198.152 93.5574 198.498 94.4637 198.498 95.652V100.345C198.498 100.882 198.569 101.288 198.71 101.563C198.85 101.832 199.119 101.966 199.515 101.966C199.69 101.966 199.888 101.943 200.109 101.896V103.024C199.653 103.131 199.186 103.185 198.71 103.185C198.038 103.185 197.548 103.01 197.239 102.661C196.937 102.305 196.766 101.751 196.726 100.999H196.665C196.202 101.832 195.662 102.423 195.044 102.772C194.433 103.114 193.688 103.285 192.808 103.285ZM193.221 101.926C193.886 101.926 194.477 101.775 194.994 101.473C195.51 101.171 195.917 100.758 196.212 100.234C196.514 99.7037 196.665 99.1599 196.665 98.6026V97.7064L194.681 97.7467C193.829 97.7601 193.181 97.8474 192.738 98.0085C192.301 98.1696 191.966 98.418 191.731 98.7537C191.496 99.0894 191.378 99.5291 191.378 100.073C191.378 100.664 191.536 101.12 191.852 101.443C192.174 101.765 192.63 101.926 193.221 101.926ZM209.163 98.0286C209.163 96.6725 208.941 95.6755 208.498 95.0377C208.055 94.3932 207.333 94.071 206.333 94.071C205.265 94.071 204.48 94.3966 203.976 95.0478C203.48 95.699 203.231 96.6926 203.231 98.0286C203.231 99.3311 203.463 100.311 203.926 100.969C204.396 101.62 205.131 101.946 206.131 101.946C207.212 101.946 207.988 101.634 208.458 101.009C208.928 100.378 209.163 99.3848 209.163 98.0286ZM206.715 92.7417C208.206 92.7417 209.304 93.1814 210.009 94.0609C210.713 94.9337 211.066 96.2495 211.066 98.0085C211.066 99.7876 210.646 101.114 209.807 101.986C208.968 102.852 207.749 103.285 206.152 103.285C204.5 103.285 203.281 102.745 202.496 101.664C201.717 100.583 201.328 98.9215 201.328 96.6792C201.328 95.5379 201.405 94.5376 201.559 93.6782C201.714 92.8122 201.956 92.0669 202.285 91.4426C202.613 90.8182 203.036 90.2979 203.553 89.8817C204.077 89.4654 204.732 89.1297 205.517 88.8746C206.309 88.6195 207.988 88.314 210.552 87.9582V89.5796C207.739 89.9421 205.917 90.2878 205.084 90.6168C204.258 90.9458 203.678 91.4694 203.342 92.1878C203.006 92.9061 202.825 93.9803 202.798 95.4103C203.087 94.5711 203.57 93.9165 204.248 93.4466C204.926 92.9766 205.749 92.7417 206.715 92.7417ZM222.546 97.6258C222.546 99.5325 222.127 100.952 221.287 101.886C220.448 102.819 219.23 103.285 217.632 103.285C216.041 103.285 214.839 102.802 214.027 101.835C213.214 100.862 212.808 99.4586 212.808 97.6258C212.808 93.8662 214.436 91.9864 217.692 91.9864C219.357 91.9864 220.582 92.4463 221.368 93.366C222.153 94.2791 222.546 95.699 222.546 97.6258ZM220.643 97.6258C220.643 96.122 220.418 95.031 219.968 94.3529C219.525 93.6681 218.777 93.3257 217.722 93.3257C216.662 93.3257 215.893 93.6749 215.416 94.3731C214.946 95.0646 214.711 96.1488 214.711 97.6258C214.711 99.0625 214.943 100.143 215.406 100.868C215.876 101.587 216.611 101.946 217.612 101.946C218.699 101.946 219.475 101.597 219.938 100.899C220.408 100.2 220.643 99.1095 220.643 97.6258ZM223.312 92.1878H232.053V93.507H228.588V103.084H226.776V93.507H223.312V92.1878ZM236.333 103.285C235.238 103.285 234.416 102.997 233.865 102.419C233.315 101.842 233.04 101.05 233.04 100.043C233.04 98.9148 233.409 98.0488 234.147 97.4445C234.893 96.8403 236.091 96.5181 237.742 96.4778L240.19 96.4375V95.8434C240.19 94.9572 240.002 94.3227 239.626 93.94C239.25 93.5574 238.659 93.366 237.853 93.366C237.041 93.366 236.45 93.5037 236.081 93.7789C235.712 94.0542 235.49 94.4939 235.416 95.0981L233.523 94.9269C233.832 92.9666 235.289 91.9864 237.894 91.9864C239.263 91.9864 240.294 92.3019 240.985 92.933C241.677 93.5574 242.022 94.4637 242.022 95.652V100.345C242.022 100.882 242.093 101.288 242.234 101.563C242.375 101.832 242.643 101.966 243.039 101.966C243.214 101.966 243.412 101.943 243.634 101.896V103.024C243.177 103.131 242.711 103.185 242.234 103.185C241.562 103.185 241.072 103.01 240.764 102.661C240.461 102.305 240.29 101.751 240.25 100.999H240.19C239.726 101.832 239.186 102.423 238.568 102.772C237.957 103.114 237.212 103.285 236.333 103.285ZM236.745 101.926C237.41 101.926 238.001 101.775 238.518 101.473C239.035 101.171 239.441 100.758 239.736 100.234C240.039 99.7037 240.19 99.1599 240.19 98.6026V97.7064L238.206 97.7467C237.353 97.7601 236.705 97.8474 236.262 98.0085C235.826 98.1696 235.49 98.418 235.255 98.7537C235.02 99.0894 234.903 99.5291 234.903 100.073C234.903 100.664 235.06 101.12 235.376 101.443C235.698 101.765 236.155 101.926 236.745 101.926ZM246.423 98.0186C246.423 99.2673 246.682 100.231 247.199 100.909C247.716 101.587 248.471 101.926 249.464 101.926C250.25 101.926 250.878 101.768 251.348 101.453C251.824 101.137 252.147 100.738 252.314 100.254L253.905 100.707C253.254 102.426 251.774 103.285 249.464 103.285C247.853 103.285 246.625 102.805 245.779 101.845C244.939 100.885 244.52 99.4586 244.52 97.5654C244.52 95.7661 244.939 94.3865 245.779 93.4265C246.625 92.4664 247.83 91.9864 249.394 91.9864C252.596 91.9864 254.198 93.9165 254.198 97.7769V98.0186H246.423ZM252.324 96.6288C252.224 95.4808 251.932 94.645 251.448 94.1213C250.965 93.5909 250.27 93.3257 249.364 93.3257C248.484 93.3257 247.786 93.6211 247.269 94.2119C246.759 94.796 246.484 95.6017 246.443 96.6288H252.324ZM254.792 92.1878H263.533V93.507H260.069V103.084H258.256V93.507H254.792V92.1878ZM267.501 99.086H266.01L265.768 88.8948H267.742L267.501 99.086ZM265.748 103.084V101.06H267.702V103.084H265.748Z" fill="white"/>
</svg>
