<svg width="241" height="204" viewBox="0 0 241 204" fill="none" xmlns="http://www.w3.org/2000/svg">
<path d="M17.5156 109.984V113.547H6.75V131.984H2.14062V109.984H17.5156ZM38.4062 116.953C38.4062 118.37 38.0833 119.635 37.4375 120.75C36.7917 121.865 35.8646 122.729 34.6562 123.344C33.4583 123.948 32.0312 124.25 30.375 124.25H24.9062V132H20.2969V109.984H30.1875C32.8229 109.984 34.849 110.594 36.2656 111.812C37.6927 113.021 38.4062 114.734 38.4062 116.953ZM33.7656 117.031C33.7656 114.719 32.401 113.562 29.6719 113.562H24.9062V120.703H29.7969C31.0677 120.703 32.0469 120.391 32.7344 119.766C33.4219 119.13 33.7656 118.219 33.7656 117.031ZM44.3906 132.312C43.651 132.312 42.9167 132.219 42.1875 132.031C41.4583 131.854 40.875 131.635 40.4375 131.375L41.7188 127.531C42.6458 127.969 43.4792 128.188 44.2188 128.188C44.7083 128.188 45.125 128.094 45.4688 127.906C45.8229 127.719 46.151 127.422 46.4531 127.016C46.7656 126.599 47.2031 125.776 47.7656 124.547L39.0781 109.984H43.875L49.9375 120.609L54.5938 109.984H59.2656L51.0625 127.031C50.3438 128.531 49.6823 129.63 49.0781 130.328C48.4844 131.016 47.8125 131.521 47.0625 131.844C46.3229 132.156 45.4323 132.312 44.3906 132.312ZM75.375 132V113.797H65.7031V132H61.1094V109.984H79.8281V132H75.375ZM98.375 132V113.797H88.7031V132H84.1094V109.984H102.828V132H98.375ZM128.516 120.891C128.516 123.182 128.062 125.198 127.156 126.938C126.25 128.677 124.953 130.01 123.266 130.938C121.578 131.854 119.609 132.312 117.359 132.312C113.901 132.312 111.188 131.297 109.219 129.266C107.26 127.224 106.281 124.432 106.281 120.891C106.281 117.359 107.26 114.604 109.219 112.625C111.177 110.646 113.901 109.656 117.391 109.656C120.88 109.656 123.604 110.656 125.562 112.656C127.531 114.656 128.516 117.401 128.516 120.891ZM123.812 120.891C123.812 118.516 123.25 116.656 122.125 115.312C121 113.958 119.422 113.281 117.391 113.281C115.328 113.281 113.734 113.953 112.609 115.297C111.484 116.63 110.922 118.495 110.922 120.891C110.922 123.307 111.495 125.214 112.641 126.609C113.797 127.995 115.37 128.688 117.359 128.688C119.422 128.688 121.01 128.01 122.125 126.656C123.25 125.302 123.812 123.38 123.812 120.891ZM151.531 125.719C151.531 127.719 150.781 129.266 149.281 130.359C147.781 131.453 145.698 132 143.031 132H132.016V109.984H142.094C144.781 109.984 146.812 110.453 148.188 111.391C149.573 112.318 150.266 113.693 150.266 115.516C150.266 116.766 149.917 117.823 149.219 118.688C148.531 119.542 147.479 120.12 146.062 120.422C147.844 120.63 149.198 121.193 150.125 122.109C151.062 123.016 151.531 124.219 151.531 125.719ZM145.625 116.141C145.625 115.151 145.307 114.448 144.672 114.031C144.047 113.615 143.115 113.406 141.875 113.406H136.625V118.859H141.906C143.208 118.859 144.151 118.635 144.734 118.188C145.328 117.729 145.625 117.047 145.625 116.141ZM146.906 125.359C146.906 123.297 145.427 122.266 142.469 122.266H136.625V128.578H142.641C144.12 128.578 145.198 128.312 145.875 127.781C146.562 127.24 146.906 126.432 146.906 125.359ZM175.734 120.891C175.734 123.182 175.281 125.198 174.375 126.938C173.469 128.677 172.172 130.01 170.484 130.938C168.797 131.854 166.828 132.312 164.578 132.312C161.12 132.312 158.406 131.297 156.438 129.266C154.479 127.224 153.5 124.432 153.5 120.891C153.5 117.359 154.479 114.604 156.438 112.625C158.396 110.646 161.12 109.656 164.609 109.656C168.099 109.656 170.823 110.656 172.781 112.656C174.75 114.656 175.734 117.401 175.734 120.891ZM171.031 120.891C171.031 118.516 170.469 116.656 169.344 115.312C168.219 113.958 166.641 113.281 164.609 113.281C162.547 113.281 160.953 113.953 159.828 115.297C158.703 116.63 158.141 118.495 158.141 120.891C158.141 123.307 158.714 125.214 159.859 126.609C161.016 127.995 162.589 128.688 164.578 128.688C166.641 128.688 168.229 128.01 169.344 126.656C170.469 125.302 171.031 123.38 171.031 120.891ZM179.219 132V109.984H183.312V122.781C183.312 123.896 183.271 125.328 183.188 127.078L192.766 109.984H197.953V132H193.859V119.016C193.859 118.203 193.901 116.88 193.984 115.047L184.469 132H179.219ZM188.688 108.344C186.604 108.344 185.042 107.917 184 107.062C182.969 106.208 182.411 104.865 182.328 103.031H185.828C185.932 105.104 186.885 106.141 188.688 106.141C190.49 106.141 191.443 105.104 191.547 103.031H195.047C194.964 104.875 194.401 106.224 193.359 107.078C192.328 107.922 190.771 108.344 188.688 108.344ZM12.4219 165.688C15.2031 165.688 17.1354 164.292 18.2188 161.5L22.2344 163.016C21.3698 165.141 20.099 166.724 18.4219 167.766C16.7552 168.797 14.7552 169.312 12.4219 169.312C8.88021 169.312 6.14062 168.312 4.20312 166.312C2.27604 164.302 1.3125 161.495 1.3125 157.891C1.3125 154.276 2.24479 151.5 4.10938 149.562C5.97396 147.625 8.67708 146.656 12.2188 146.656C14.8021 146.656 16.9062 147.177 18.5312 148.219C20.1562 149.25 21.2969 150.771 21.9531 152.781L17.8906 153.891C17.5469 152.786 16.8698 151.911 15.8594 151.266C14.8594 150.609 13.6771 150.281 12.3125 150.281C10.2292 150.281 8.64583 150.927 7.5625 152.219C6.48958 153.51 5.95312 155.401 5.95312 157.891C5.95312 160.422 6.50521 162.354 7.60938 163.688C8.72396 165.021 10.3281 165.688 12.4219 165.688ZM45.8594 157.891C45.8594 160.182 45.4062 162.198 44.5 163.938C43.5938 165.677 42.2969 167.01 40.6094 167.938C38.9219 168.854 36.9531 169.312 34.7031 169.312C31.2448 169.312 28.5312 168.297 26.5625 166.266C24.6042 164.224 23.625 161.432 23.625 157.891C23.625 154.359 24.6042 151.604 26.5625 149.625C28.5208 147.646 31.2448 146.656 34.7344 146.656C38.224 146.656 40.9479 147.656 42.9062 149.656C44.875 151.656 45.8594 154.401 45.8594 157.891ZM41.1562 157.891C41.1562 155.516 40.5938 153.656 39.4688 152.312C38.3438 150.958 36.7656 150.281 34.7344 150.281C32.6719 150.281 31.0781 150.953 29.9531 152.297C28.8281 153.63 28.2656 155.495 28.2656 157.891C28.2656 160.307 28.8385 162.214 29.9844 163.609C31.1406 164.995 32.7135 165.688 34.7031 165.688C36.7656 165.688 38.3542 165.01 39.4688 163.656C40.5938 162.302 41.1562 160.38 41.1562 157.891ZM62.2812 150.797H55.9219L55.1562 156.234C54.5938 160.151 54.0469 162.948 53.5156 164.625C52.9844 166.292 52.3125 167.479 51.5 168.188C50.6875 168.896 49.5469 169.25 48.0781 169.25C47.3594 169.25 46.8438 169.161 46.5312 168.984V165.125C46.6771 165.198 46.901 165.234 47.2031 165.234C47.7969 165.234 48.2865 164.87 48.6719 164.141C49.0573 163.411 49.4167 162.229 49.75 160.594C50.0938 158.948 50.4427 156.875 50.7969 154.375L51.8438 146.984H66.7188V169H62.2812V150.797ZM69.4219 169L75.375 159.75C73.8854 159.396 72.7031 158.661 71.8281 157.547C70.9531 156.422 70.5156 155.089 70.5156 153.547C70.5156 151.432 71.2292 149.812 72.6562 148.688C74.0938 147.552 76.1198 146.984 78.7344 146.984H89.7344V169H85.125V160.641H79.7188L74.6094 169H69.4219ZM75.1562 153.734C75.1562 154.776 75.4844 155.594 76.1406 156.188C76.8073 156.771 77.7917 157.062 79.0938 157.062H85.125V150.562H79.2188C76.5104 150.562 75.1562 151.62 75.1562 153.734ZM112.125 153.953C112.125 155.37 111.802 156.635 111.156 157.75C110.51 158.865 109.583 159.729 108.375 160.344C107.177 160.948 105.75 161.25 104.094 161.25H98.625V169H94.0156V146.984H103.906C106.542 146.984 108.568 147.594 109.984 148.812C111.411 150.021 112.125 151.734 112.125 153.953ZM107.484 154.031C107.484 151.719 106.12 150.562 103.391 150.562H98.625V157.703H103.516C104.786 157.703 105.766 157.391 106.453 156.766C107.141 156.13 107.484 155.219 107.484 154.031ZM115.344 169V146.984H119.438V159.781C119.438 160.896 119.396 162.328 119.312 164.078L128.891 146.984H134.078V169H129.984V156.016C129.984 155.203 130.026 153.88 130.109 152.047L120.594 169H115.344ZM138.344 169V146.984H142.438V159.781C142.438 160.896 142.396 162.328 142.312 164.078L151.891 146.984H157.078V169H152.984V156.016C152.984 155.203 153.026 153.88 153.109 152.047L143.594 169H138.344ZM147.812 145.344C145.729 145.344 144.167 144.917 143.125 144.062C142.094 143.208 141.536 141.865 141.453 140.031H144.953C145.057 142.104 146.01 143.141 147.812 143.141C149.615 143.141 150.568 142.104 150.672 140.031H154.172C154.089 141.875 153.526 143.224 152.484 144.078C151.453 144.922 149.896 145.344 147.812 145.344Z" fill="white"/>
<path d="M3.75 193.219L2.76562 198H1.47656L2.46094 193.219H0.105469V191.953H2.74219L3.65625 187.629H0.703125V186.363H3.91406L4.95703 181.582H6.24609L5.21484 186.363H9.46875L10.5 181.582H11.7891L10.7578 186.363H13.2305V187.629H10.5L9.58594 191.953H12.6328V193.219H9.31641L8.28516 198H6.99609L8.00391 193.219H3.75ZM4.04297 191.953H8.28516L9.19922 187.629H4.98047L4.04297 191.953ZM15.5039 198V202.781H13.5938V196.465H14.9883C15.5742 195.488 16.082 194.102 16.5117 192.305C16.9414 190.508 17.3359 188.18 17.6953 185.32H25.2422V196.465H26.9531V202.781H25.043V198H15.5039ZM17.3086 196.465H23.1328V186.855H19.5469C19.2578 188.98 18.9375 190.832 18.5859 192.41C18.2344 193.98 17.8086 195.332 17.3086 196.465ZM39.7148 191.648C39.7148 193.867 39.2266 195.52 38.25 196.605C37.2734 197.691 35.8555 198.234 33.9961 198.234C32.1445 198.234 30.7461 197.672 29.8008 196.547C28.8555 195.414 28.3828 193.781 28.3828 191.648C28.3828 189.461 28.8555 187.82 29.8008 186.727C30.7539 185.633 32.1758 185.086 34.0664 185.086C36.0039 185.086 37.4297 185.621 38.3438 186.691C39.2578 187.754 39.7148 189.406 39.7148 191.648ZM37.5 191.648C37.5 189.898 37.2383 188.629 36.7148 187.84C36.1992 187.043 35.3281 186.645 34.1016 186.645C32.8672 186.645 31.9727 187.051 31.418 187.863C30.8711 188.668 30.5977 189.93 30.5977 191.648C30.5977 193.32 30.8672 194.578 31.4062 195.422C31.9531 196.258 32.8086 196.676 33.9727 196.676C35.2383 196.676 36.1406 196.27 36.6797 195.457C37.2266 194.645 37.5 193.375 37.5 191.648ZM47.2148 198.234C45.4414 198.234 44.0859 197.676 43.1484 196.559C42.2188 195.434 41.7539 193.797 41.7539 191.648C41.7539 189.516 42.2227 187.891 43.1602 186.773C44.0977 185.648 45.4414 185.086 47.1914 185.086C48.4883 185.086 49.5625 185.422 50.4141 186.094C51.2734 186.766 51.8125 187.691 52.0312 188.871L49.8633 189.035C49.7539 188.332 49.4766 187.773 49.0312 187.359C48.5859 186.945 47.9531 186.738 47.1328 186.738C46.0156 186.738 45.207 187.109 44.707 187.852C44.207 188.594 43.957 189.844 43.957 191.602C43.957 193.289 44.2227 194.539 44.7539 195.352C45.2852 196.164 46.0859 196.57 47.1562 196.57C47.9062 196.57 48.5312 196.367 49.0312 195.961C49.5391 195.555 49.8516 194.93 49.9688 194.086L52.1016 194.227C51.9922 195.039 51.7188 195.746 51.2812 196.348C50.8516 196.949 50.2891 197.414 49.5938 197.742C48.9062 198.07 48.1133 198.234 47.2148 198.234ZM54.9727 202.98C54.4102 202.98 53.9258 202.938 53.5195 202.852V201.27C53.8164 201.316 54.1445 201.34 54.5039 201.34C55.1602 201.34 55.7656 201.094 56.3203 200.602C56.8828 200.117 57.3828 199.23 57.8203 197.941L52.793 185.32H55.043L57.7148 192.328C57.9102 192.828 58.1172 193.395 58.3359 194.027C58.5625 194.66 58.7383 195.219 58.8633 195.703C59.0586 195.148 59.2539 194.598 59.4492 194.051C59.6523 193.504 59.8477 192.957 60.0352 192.41L62.4609 185.32H64.6875L59.8125 198C59.5469 198.672 59.293 199.258 59.0508 199.758C58.8086 200.266 58.5742 200.684 58.3477 201.012C57.8945 201.676 57.3906 202.168 56.8359 202.488C56.2891 202.816 55.668 202.98 54.9727 202.98ZM68.5078 186.855V198H66.3984V185.32H72.7852V186.855H68.5078Z" fill="white"/>
<path d="M49.5469 77.1719V88H3.32812V78.8594C4.48438 76.3281 5.95312 73.8594 7.73438 71.4531C9.51562 69.0156 11.6406 66.5781 14.1094 64.1406C16.6094 61.6719 19.4531 59.1406 22.6406 56.5469C24.9531 54.6719 26.9219 52.9688 28.5469 51.4375C30.1719 49.875 31.4375 48.4844 32.3438 47.2656C33.2812 46.0469 33.9844 44.8438 34.4531 43.6562C34.9219 42.4375 35.1562 41.25 35.1562 40.0938C35.1562 37.2188 34.4219 35.0625 32.9531 33.625C31.5156 32.1875 29.3594 31.4688 26.4844 31.4688C23.6719 31.4688 21.5156 32.2344 20.0156 33.7656C18.5469 35.2656 17.5938 37.5312 17.1562 40.5625L3.89062 39.8125C4.64062 33.6875 6.92188 29.0156 10.7344 25.7969C14.5781 22.5781 19.7969 20.9688 26.3906 20.9688C33.5156 20.9688 38.9844 22.5938 42.7969 25.8438C46.6094 29.0937 48.5156 33.6562 48.5156 39.5312C48.5156 42.8438 47.8281 45.8125 46.4531 48.4375C45.0781 51.0625 43.3281 53.4844 41.2031 55.7031C39.4531 57.6094 37.4688 59.4219 35.25 61.1406C33.0625 62.8594 30.9375 64.5312 28.875 66.1562C26.6875 67.9062 24.6875 69.6719 22.875 71.4531C21.0938 73.2344 19.7656 75.1406 18.8906 77.1719H49.5469ZM103.875 69.3906C103.875 75.5781 101.828 80.3906 97.7344 83.8281C93.6406 87.2344 87.7969 88.9375 80.2031 88.9375C72.6719 88.9375 66.8281 87.2344 62.6719 83.8281C58.5469 80.4219 56.4844 75.6406 56.4844 69.4844C56.4844 65.2656 57.7031 61.7188 60.1406 58.8438C62.5781 55.9375 65.8438 54.1406 69.9375 53.4531V53.2656C66.375 52.4844 63.5 50.7188 61.3125 47.9688C59.125 45.2188 58.0312 42.0469 58.0312 38.4531C58.0312 33.0469 59.9375 28.7813 63.75 25.6562C67.5938 22.5312 73.0156 20.9688 80.0156 20.9688C87.1719 20.9688 92.6562 22.5 96.4688 25.5625C100.312 28.5938 102.234 32.9219 102.234 38.5469C102.234 42.1406 101.141 45.2969 98.9531 48.0156C96.7969 50.7344 93.8906 52.4531 90.2344 53.1719V53.3594C94.4844 54.0469 97.8125 55.7969 100.219 58.6094C102.656 61.3906 103.875 64.9844 103.875 69.3906ZM88.6875 39.25C88.6875 33.2188 85.7969 30.2031 80.0156 30.2031C74.3281 30.2031 71.4844 33.2188 71.4844 39.25C71.4844 42.4062 72.2031 44.7812 73.6406 46.375C75.0781 47.9375 77.2344 48.7188 80.1094 48.7188C82.9844 48.7188 85.125 47.9844 86.5312 46.5156C87.9688 45.0469 88.6875 42.625 88.6875 39.25ZM90.2344 68.3125C90.2344 64.875 89.375 62.2969 87.6562 60.5781C85.9375 58.8281 83.3594 57.9531 79.9219 57.9531C76.7344 57.9531 74.2812 58.8594 72.5625 60.6719C70.875 62.4844 70.0312 65.0938 70.0312 68.5C70.0312 72.375 70.875 75.2031 72.5625 76.9844C74.25 78.7656 76.8281 79.6562 80.2969 79.6562C83.7031 79.6562 86.2031 78.7656 87.7969 76.9844C89.4219 75.2031 90.2344 72.3125 90.2344 68.3125ZM132.609 18.4375L119.203 89.9219H107.812L121.453 18.4375H132.609ZM183.047 54.9531C183.047 66.1094 181.125 74.5625 177.281 80.3125C173.469 86.0625 167.734 88.9375 160.078 88.9375C152.516 88.9375 146.844 86.1094 143.062 80.4531C139.281 74.7656 137.391 66.2656 137.391 54.9531C137.391 43.3594 139.188 34.7969 142.781 29.2656C146.406 23.7344 152.297 20.9688 160.453 20.9688C168.266 20.9688 173.984 23.7969 177.609 29.4531C181.234 35.1094 183.047 43.6094 183.047 54.9531ZM169.828 54.9531C169.828 49.0156 169.562 44.3281 169.031 40.8906C168.5 37.4219 167.547 34.9531 166.172 33.4844C164.797 32.0156 162.859 31.2812 160.359 31.2812C157.703 31.2812 155.656 32.0312 154.219 33.5312C152.812 35 151.844 37.4688 151.312 40.9375C150.812 44.375 150.562 49.0469 150.562 54.9531C150.562 60.8594 150.828 65.5469 151.359 69.0156C151.922 72.4531 152.891 74.9062 154.266 76.375C155.672 77.8438 157.641 78.5781 160.172 78.5781C163.922 78.5781 166.469 76.7656 167.812 73.1406C169.156 69.5156 169.828 63.4531 169.828 54.9531ZM236.953 66.3906C236.953 73.4219 234.984 78.9375 231.047 82.9375C227.109 86.9375 221.672 88.9375 214.734 88.9375C206.953 88.9375 200.969 86.2188 196.781 80.7812C192.625 75.3125 190.547 67.2188 190.547 56.5C190.547 44.7188 192.656 35.8594 196.875 29.9219C201.125 23.9531 207.188 20.9688 215.062 20.9688C220.656 20.9688 225.062 22.2031 228.281 24.6719C231.531 27.1406 233.828 30.9687 235.172 36.1562L222.75 37.8906C221.594 33.5469 218.938 31.375 214.781 31.375C211.25 31.375 208.469 33.1406 206.438 36.6719C204.438 40.2031 203.438 45.5625 203.438 52.75C204.844 50.4062 206.797 48.6094 209.297 47.3594C211.797 46.1094 214.625 45.4844 217.781 45.4844C223.688 45.4844 228.359 47.3594 231.797 51.1094C235.234 54.8594 236.953 59.9531 236.953 66.3906ZM223.734 66.7656C223.734 63.0156 222.859 60.1562 221.109 58.1875C219.391 56.1875 217.016 55.1875 213.984 55.1875C211.078 55.1875 208.75 56.125 207 58C205.25 59.8438 204.375 62.2969 204.375 65.3594C204.375 67.9219 204.781 70.2031 205.594 72.2031C206.438 74.2031 207.609 75.7812 209.109 76.9375C210.609 78.0938 212.344 78.6719 214.312 78.6719C217.281 78.6719 219.594 77.625 221.25 75.5312C222.906 73.4062 223.734 70.4844 223.734 66.7656Z" fill="white"/>
</svg>
