<svg width="100" height="73" viewBox="0 0 100 73" fill="none" xmlns="http://www.w3.org/2000/svg">
<path d="M4.24757 40.5867L1.5174 41.7503L0.0390625 42.3812V60.3266L4.24757 58.5321V51.3539L12.6727 47.7631V36.9941L4.24757 40.5867ZM8.46012 45.9686L4.24757 47.7631V44.1723L5.72591 43.5431L8.46012 42.3795V45.9686Z" fill="white"/>
<path d="M83.8 6.98682V10.5776L75.3728 14.1719V28.542L71.1562 30.3383V12.3756L75.3728 10.5776L79.5874 8.78308L83.8 6.98682Z" fill="white"/>
<path d="M95.6466 1.79971L91.424 3.60115L87.1973 5.40259V23.4083L91.424 21.6069V14.4046L95.6466 12.6032V19.8055L99.8733 18.0075V0L95.6466 1.79971ZM95.6466 9.00202L91.424 10.8035V7.20058L95.6466 5.40259V9.00202Z" fill="white"/>
<path d="M25.4474 31.5724L21.2248 33.3739L16.998 35.1753V53.1811L21.2248 51.3796V44.1773L25.4474 42.3759V49.5782L29.6741 47.7768V29.771L25.4474 31.5724ZM25.4474 38.7765L21.2248 40.5779V36.975L25.4474 35.177V38.7765Z" fill="white"/>
<path d="M67.7912 13.7773V31.7831L55.1191 37.184V33.5845L63.5645 29.9817V26.3822L55.1191 29.9817V19.1782L57.4671 18.1784L59.3418 17.3802V24.5808L63.5645 22.7811V15.5788L67.7912 13.7773Z" fill="white"/>
<path d="M50.8446 28.173V38.9506L48.9416 39.7608L46.63 40.7468V37.156L38.2009 40.7468V44.3394L33.9863 46.1356V35.358L38.2009 33.5618V26.375L46.63 22.7842V29.9692L48.9416 28.9832L50.8446 28.173Z" fill="white"/>
<path d="M7.22262 64.3062V65.5861L10.2242 64.3062V65.5861L8.72258 66.2254L7.22262 66.8647V68.1433L10.2242 66.8647V68.1433L5.72266 70.0612V63.6669L10.2242 61.749V63.0276L7.22262 64.3062Z" fill="white"/>
<path d="M21.6503 58.2032V56.9219L18.6438 58.2032L17.1406 58.8439V65.2507L18.6438 64.61L21.6503 63.3286V59.4846L18.6438 60.7659V59.4846L21.6503 58.2032ZM20.1471 61.4066V62.688L18.6438 63.3286V62.0473L20.1471 61.4066Z" fill="white"/>
<path d="M35.7196 50.9619V57.4172L34.205 58.0634V55.4813L32.6904 56.1261L31.1758 56.7724V52.8992L32.6904 52.253V54.8351L34.205 54.1903V51.6081L35.7196 50.9619Z" fill="white"/>
<path d="M30.0722 53.3398V59.7729L28.5625 60.4164V53.9833L30.0722 53.3398Z" fill="white"/>
<path d="M24.0351 58.4859V55.9121L22.5254 56.5556V62.99L24.0351 62.3466L25.5448 61.7032L27.0546 61.0597V57.199L24.0351 58.4859ZM25.5448 60.4163L24.0351 61.0597V59.7728L25.5448 59.1294V60.4163Z" fill="white"/>
<path d="M44.25 47.3394V53.7725L42.7402 54.4159V47.9828L44.25 47.3394Z" fill="white"/>
<path d="M38.2128 52.4854V49.9116L36.7031 50.5551V56.9896L38.2128 56.3461L39.7226 55.7027L41.2323 55.0592V51.1985L38.2128 52.4854ZM39.7226 54.4158L38.2128 55.0592V53.7723L39.7226 53.1289V54.4158Z" fill="white"/>
<path d="M4.50639 64.187V70.5882L3.00318 71.2289V68.6676L1.50159 69.3083V71.8682L0 72.5089V66.1077L1.50159 65.467V68.0283L3.00318 67.3876V64.8263L4.50639 64.187Z" fill="white"/>
<path d="M14.4465 59.9659L12.9449 60.6065L11.4434 61.2472V67.6484L12.9449 67.0078L14.4465 66.3671L15.9481 65.7264V59.3252L14.4465 59.9659ZM14.4465 65.0871L12.9449 65.7278V61.8865L14.4465 61.2458V65.0871Z" fill="white"/>
<path d="M49.5087 42.8867V44.1764L46.4844 45.4661V44.1764L49.5087 42.8867Z" fill="white"/>
<path d="M47.997 50.9256V52.2152L46.4856 52.8601L44.9727 53.5049V47.0579L46.4856 46.4131V51.5704L47.997 50.9256Z" fill="white"/>
<path d="M51.0201 44.48V50.9256L49.5071 51.5704V50.2807L47.9941 50.9256V49.6359L49.5071 48.9924V45.1234L51.0201 44.48Z" fill="white"/>
<path d="M58.2724 46.5043L61.2642 45.2298V46.5043L58.2724 47.7801L56.7773 48.418V42.0417L58.2724 41.4052L61.2642 40.1294V41.4052L59.7691 42.0417L58.2724 42.6796V46.5043Z" fill="white"/>
<path d="M71.7907 35.6406V36.9123L70.2988 37.5474V36.2758L71.7907 35.6406Z" fill="white"/>
<path d="M73.2809 36.2759V41.3625L71.7891 41.9976V36.9124L73.2809 36.2759Z" fill="white"/>
<path d="M70.2985 37.5474V42.6326L68.8066 43.2691V38.1825L70.2985 37.5474Z" fill="white"/>
<path d="M89.4993 33.2726V34.5512L87.9977 35.1919L86.4961 35.8312V29.4327L87.9977 28.7935V33.9119L89.4993 33.2726Z" fill="white"/>
<path d="M92.5016 26.874V33.2725L91 33.9117V32.6318L89.5 33.2725V31.9925L91 31.3518V27.5133L92.5016 26.874Z" fill="white"/>
<path d="M79.4966 32.4331V38.8343L77.9934 39.475V34.3537L76.4918 34.993V36.2744L74.9902 36.9137V34.3537L76.4918 33.7131L77.9934 33.0724L79.4966 32.4331Z" fill="white"/>
<path d="M77.9938 35.6338V36.9138L76.4922 37.5544V36.2745L77.9938 35.6338Z" fill="white"/>
<path d="M76.4918 37.5542V40.1141L74.9902 40.7548V38.1935L76.4918 37.5542Z" fill="white"/>
<path d="M82.3737 31.1825L80.877 31.8204V38.2009L82.3737 37.563V35.0113L85.3687 33.7355V29.9067L82.3737 31.1825ZM83.8704 33.0976L82.3737 33.7355V32.4597L83.8704 31.8218V33.0976Z" fill="white"/>
<path d="M65.7297 38.1841L64.2282 38.8248L62.7266 39.4655V45.8667L64.2282 45.226L65.7297 44.5853L67.2313 43.9447V37.5435L65.7297 38.1841ZM65.7297 43.3054L64.2282 43.9461V40.1048L65.7297 39.4641V43.3054Z" fill="white"/>
<path d="M98.3622 22.0742V23.3639L95.3379 24.6522V23.3639L98.3622 22.0742Z" fill="white"/>
<path d="M96.8466 30.1131V31.4013L95.3352 32.0462L93.8223 32.691V26.2454L95.3352 25.6006V30.7579L96.8466 30.1131Z" fill="white"/>
<path d="M99.8736 23.666V30.113L98.3606 30.7578V29.4682L96.8477 30.113V28.8233L98.3606 28.1785V24.3109L99.8736 23.666Z" fill="white"/>
</svg>
