<svg width="256" height="167" viewBox="0 0 256 167" fill="none" xmlns="http://www.w3.org/2000/svg">
<path d="M20.4219 132V118.656C20.4219 118.354 20.4219 118.052 20.4219 117.75C20.4323 117.448 20.4844 116.151 20.5781 113.859C19.8385 116.661 19.2917 118.615 18.9375 119.719L14.9688 132H11.6875L7.71875 119.719L6.04688 113.859C6.17188 116.276 6.23438 117.875 6.23438 118.656V132H2.14062V109.984H8.3125L12.25 122.297L12.5938 123.484L13.3438 126.438L14.3281 122.906L18.375 109.984H24.5156V132H20.4219ZM28.7969 132V109.984H46.1094V113.547H33.4062V119.078H45.1562V122.641H33.4062V128.438H46.75V132H28.7969ZM63.875 113.797H57.5156L56.75 119.234C56.1875 123.151 55.6406 125.948 55.1094 127.625C54.5781 129.292 53.9062 130.479 53.0938 131.188C52.2812 131.896 51.1406 132.25 49.6719 132.25C48.9531 132.25 48.4375 132.161 48.125 131.984V128.125C48.2708 128.198 48.4948 128.234 48.7969 128.234C49.3906 128.234 49.8802 127.87 50.2656 127.141C50.651 126.411 51.0104 125.229 51.3438 123.594C51.6875 121.948 52.0365 119.875 52.3906 117.375L53.4375 109.984H68.3125V132H63.875V113.797ZM88.1719 132L86.2188 126.375H77.8281L75.875 132H71.2656L79.2969 109.984H84.7344L92.7344 132H88.1719ZM82.0156 113.375L81.9219 113.719C81.8177 114.094 81.6927 114.521 81.5469 115C81.401 115.479 80.5052 118.115 78.8594 122.906H85.1875L83.0156 116.578L82.3438 114.453L82.0156 113.375ZM109.938 132V122.562H100.344V132H95.7344V109.984H100.344V118.75H109.938V109.984H114.547V132H109.938ZM118.844 132V109.984H122.938V122.781C122.938 123.896 122.896 125.328 122.812 127.078L132.391 109.984H137.578V132H133.484V119.016C133.484 118.203 133.526 116.88 133.609 115.047L124.094 132H118.844ZM156.062 132V122.562H146.469V132H141.859V109.984H146.469V118.75H156.062V109.984H160.672V132H156.062ZM173.891 109.984H178.5V119.344C179.042 119.344 179.62 119.026 180.234 118.391C180.859 117.745 181.667 116.63 182.656 115.047L185.875 109.984H190.562L186.422 116.312C185.13 118.281 184.24 119.448 183.75 119.812L191.328 132H186.312L180.469 122C180.26 122.135 179.953 122.26 179.547 122.375C179.141 122.49 178.786 122.547 178.484 122.547V132H173.891V109.984ZM204.172 113.547V132H199.562V113.547H192.453V109.984H211.297V113.547H204.172ZM234.391 120.891C234.391 123.182 233.938 125.198 233.031 126.938C232.125 128.677 230.828 130.01 229.141 130.938C227.453 131.854 225.484 132.312 223.234 132.312C219.776 132.312 217.062 131.297 215.094 129.266C213.135 127.224 212.156 124.432 212.156 120.891C212.156 117.359 213.135 114.604 215.094 112.625C217.052 110.646 219.776 109.656 223.266 109.656C226.755 109.656 229.479 110.656 231.438 112.656C233.406 114.656 234.391 117.401 234.391 120.891ZM229.688 120.891C229.688 118.516 229.125 116.656 228 115.312C226.875 113.958 225.297 113.281 223.266 113.281C221.203 113.281 219.609 113.953 218.484 115.297C217.359 116.63 216.797 118.495 216.797 120.891C216.797 123.307 217.37 125.214 218.516 126.609C219.672 127.995 221.245 128.688 223.234 128.688C225.297 128.688 226.885 128.01 228 126.656C229.125 125.302 229.688 123.38 229.688 120.891ZM253.453 115.969C253.453 116.979 253.224 117.885 252.766 118.688C252.318 119.49 251.474 120.333 250.234 121.219L249.047 122.078C248.339 122.589 247.807 123.104 247.453 123.625C247.109 124.146 246.922 124.719 246.891 125.344H242.719C242.781 124.281 243.078 123.333 243.609 122.5C244.151 121.667 244.943 120.885 245.984 120.156C247.099 119.385 247.885 118.708 248.344 118.125C248.802 117.531 249.031 116.875 249.031 116.156C249.031 115.24 248.729 114.516 248.125 113.984C247.531 113.453 246.682 113.188 245.578 113.188C244.526 113.188 243.641 113.495 242.922 114.109C242.214 114.724 241.797 115.536 241.672 116.547L237.219 116.359C237.5 114.245 238.37 112.599 239.828 111.422C241.286 110.245 243.182 109.656 245.516 109.656C247.984 109.656 249.922 110.219 251.328 111.344C252.745 112.458 253.453 114 253.453 115.969ZM242.594 132V127.781H247.109V132H242.594Z" fill="white"/>
<path d="M3.75 156.219L2.76562 161H1.47656L2.46094 156.219H0.105469V154.953H2.74219L3.65625 150.629H0.703125V149.363H3.91406L4.95703 144.582H6.24609L5.21484 149.363H9.46875L10.5 144.582H11.7891L10.7578 149.363H13.2305V150.629H10.5L9.58594 154.953H12.6328V156.219H9.31641L8.28516 161H6.99609L8.00391 156.219H3.75ZM4.04297 154.953H8.28516L9.19922 150.629H4.98047L4.04297 154.953ZM17.3086 159.453C17.0195 160.062 16.6602 160.512 16.2305 160.801C15.8086 161.09 15.2617 161.234 14.5898 161.234C14.3945 161.234 14.2031 161.223 14.0156 161.199C13.8359 161.176 13.6602 161.137 13.4883 161.082V159.57C13.6914 159.641 13.957 159.676 14.2852 159.676C14.4336 159.676 14.6016 159.629 14.7891 159.535C14.9844 159.434 15.1914 159.184 15.4102 158.785C15.6289 158.379 15.8398 157.719 16.043 156.805C16.1055 156.516 16.168 156.184 16.2305 155.809C16.3008 155.434 16.3789 154.941 16.4648 154.332C16.5508 153.723 16.6602 152.938 16.793 151.977C16.9258 151.008 17.0898 149.789 17.2852 148.32H25.6992V161H23.5781V149.855H19.1836C18.957 151.559 18.7539 152.984 18.5742 154.133C18.3945 155.281 18.2422 156.152 18.1172 156.746C17.875 157.941 17.6055 158.844 17.3086 159.453ZM30.6094 155.105C30.6094 156.559 30.9102 157.68 31.5117 158.469C32.1133 159.258 32.9922 159.652 34.1484 159.652C35.0625 159.652 35.793 159.469 36.3398 159.102C36.8945 158.734 37.2695 158.27 37.4648 157.707L39.3164 158.234C38.5586 160.234 36.8359 161.234 34.1484 161.234C32.2734 161.234 30.8438 160.676 29.8594 159.559C28.8828 158.441 28.3945 156.781 28.3945 154.578C28.3945 152.484 28.8828 150.879 29.8594 149.762C30.8438 148.645 32.2461 148.086 34.0664 148.086C35.9336 148.086 37.332 148.648 38.2617 149.773C39.1914 150.898 39.6562 152.582 39.6562 154.824V155.105H30.6094ZM37.4766 153.488C37.3594 152.152 37.0195 151.18 36.457 150.57C35.8945 149.953 35.0859 149.645 34.0312 149.645C33.0078 149.645 32.1953 149.988 31.5938 150.676C31 151.355 30.6797 152.293 30.6328 153.488H37.4766ZM44.4609 155.41V161H42.3516V148.32H44.4609V153.875C44.6953 153.875 44.9062 153.844 45.0938 153.781C45.2812 153.711 45.4766 153.578 45.6797 153.383C45.7812 153.281 45.8906 153.164 46.0078 153.031C46.125 152.891 46.2461 152.73 46.3711 152.551C46.5039 152.371 46.793 151.93 47.2383 151.227C47.6836 150.516 48.2852 149.547 49.043 148.32H51.2461L48.7148 152.129C47.9961 153.191 47.4961 153.836 47.2148 154.062L51.3516 161H49.0078L45.75 155.176C45.6016 155.238 45.3984 155.293 45.1406 155.34C44.8906 155.387 44.6641 155.41 44.4609 155.41ZM52.8984 161V148.32H55.0078V159.465H60.5977V148.32H62.707V159.465H64.4297V165.781H62.5195V161H52.8984ZM74.8359 150.77L68.9062 161H66.6562V148.32H68.6953V155.258C68.6953 155.586 68.6875 155.934 68.6719 156.301C68.6562 156.668 68.6406 157.039 68.625 157.414C68.6094 157.781 68.5938 158.145 68.5781 158.504L74.4258 148.32H76.7344V161H74.7188V153.266C74.7188 153.078 74.7227 152.82 74.7305 152.492C74.7461 152.156 74.7617 151.824 74.7773 151.496C74.8008 151.168 74.8203 150.926 74.8359 150.77ZM84.668 155.633L80.9766 161H78.5977L82.6289 155.48C81.6602 155.277 80.9297 154.871 80.4375 154.262C79.9531 153.652 79.7109 152.84 79.7109 151.824C79.7109 150.66 80.1328 149.785 80.9766 149.199C81.8203 148.613 83.0508 148.32 84.668 148.32H89.7305V161H87.6211V155.633H84.668ZM84.6562 154.168H87.6211V149.809H84.8789C83.8633 149.809 83.1211 149.988 82.6523 150.348C82.1836 150.707 81.9492 151.25 81.9492 151.977C81.9492 152.711 82.1562 153.262 82.5703 153.629C82.9922 153.988 83.6875 154.168 84.6562 154.168Z" fill="white"/>
<path d="M49.4531 54.9531C49.4531 66.1094 47.5312 74.5625 43.6875 80.3125C39.875 86.0625 34.1406 88.9375 26.4844 88.9375C18.9219 88.9375 13.25 86.1094 9.46875 80.4531C5.6875 74.7656 3.79688 66.2656 3.79688 54.9531C3.79688 43.3594 5.59375 34.7969 9.1875 29.2656C12.8125 23.7344 18.7031 20.9688 26.8594 20.9688C34.6719 20.9688 40.3906 23.7969 44.0156 29.4531C47.6406 35.1094 49.4531 43.6094 49.4531 54.9531ZM36.2344 54.9531C36.2344 49.0156 35.9688 44.3281 35.4375 40.8906C34.9062 37.4219 33.9531 34.9531 32.5781 33.4844C31.2031 32.0156 29.2656 31.2812 26.7656 31.2812C24.1094 31.2812 22.0625 32.0312 20.625 33.5312C19.2188 35 18.25 37.4688 17.7188 40.9375C17.2188 44.375 16.9688 49.0469 16.9688 54.9531C16.9688 60.8594 17.2344 65.5469 17.7656 69.0156C18.3281 72.4531 19.2969 74.9062 20.6719 76.375C22.0781 77.8438 24.0469 78.5781 26.5781 78.5781C30.3281 78.5781 32.875 76.7656 34.2188 73.1406C35.5625 69.5156 36.2344 63.4531 36.2344 54.9531ZM104.156 78.2031V88H59.4844V78.2031H75.8438V33.1562L60 43.0469V32.6875L76.5469 21.9531H89.0156V78.2031H104.156ZM132.609 18.4375L119.203 89.9219H107.812L121.453 18.4375H132.609ZM183.047 54.9531C183.047 66.1094 181.125 74.5625 177.281 80.3125C173.469 86.0625 167.734 88.9375 160.078 88.9375C152.516 88.9375 146.844 86.1094 143.062 80.4531C139.281 74.7656 137.391 66.2656 137.391 54.9531C137.391 43.3594 139.188 34.7969 142.781 29.2656C146.406 23.7344 152.297 20.9688 160.453 20.9688C168.266 20.9688 173.984 23.7969 177.609 29.4531C181.234 35.1094 183.047 43.6094 183.047 54.9531ZM169.828 54.9531C169.828 49.0156 169.562 44.3281 169.031 40.8906C168.5 37.4219 167.547 34.9531 166.172 33.4844C164.797 32.0156 162.859 31.2812 160.359 31.2812C157.703 31.2812 155.656 32.0312 154.219 33.5312C152.812 35 151.844 37.4688 151.312 40.9375C150.812 44.375 150.562 49.0469 150.562 54.9531C150.562 60.8594 150.828 65.5469 151.359 69.0156C151.922 72.4531 152.891 74.9062 154.266 76.375C155.672 77.8438 157.641 78.5781 160.172 78.5781C163.922 78.5781 166.469 76.7656 167.812 73.1406C169.156 69.5156 169.828 63.4531 169.828 54.9531ZM236.203 32.4062C233.234 37.0938 230.422 41.6406 227.766 46.0469C225.141 50.4219 222.844 54.8438 220.875 59.3125C218.906 63.75 217.344 68.3281 216.188 73.0469C215.062 77.7656 214.5 82.75 214.5 88H200.766C200.766 82.9688 201.312 78.2031 202.406 73.7031C203.5 69.1719 205.234 64.4062 207.609 59.4062C209.172 56.1562 211.234 52.4375 213.797 48.25C216.359 44.0625 219.75 38.9062 223.969 32.7812H191.156V21.9531H236.203V32.4062Z" fill="white"/>
</svg>
