<svg width="212" height="167" viewBox="0 0 212 167" fill="none" xmlns="http://www.w3.org/2000/svg">
<path d="M23.5469 120.891C23.5469 123.182 23.0938 125.198 22.1875 126.938C21.2812 128.677 19.9844 130.01 18.2969 130.938C16.6094 131.854 14.6406 132.312 12.3906 132.312C8.93229 132.312 6.21875 131.297 4.25 129.266C2.29167 127.224 1.3125 124.432 1.3125 120.891C1.3125 117.359 2.29167 114.604 4.25 112.625C6.20833 110.646 8.93229 109.656 12.4219 109.656C15.9115 109.656 18.6354 110.656 20.5938 112.656C22.5625 114.656 23.5469 117.401 23.5469 120.891ZM18.8438 120.891C18.8438 118.516 18.2812 116.656 17.1562 115.312C16.0312 113.958 14.4531 113.281 12.4219 113.281C10.3594 113.281 8.76562 113.953 7.64062 115.297C6.51562 116.63 5.95312 118.495 5.95312 120.891C5.95312 123.307 6.52604 125.214 7.67188 126.609C8.82812 127.995 10.401 128.688 12.3906 128.688C14.4531 128.688 16.0417 128.01 17.1562 126.656C18.2812 125.302 18.8438 123.38 18.8438 120.891ZM41.25 132V122.562H31.6562V132H27.0469V109.984H31.6562V118.75H41.25V109.984H45.8594V132H41.25ZM63.9062 113.797H57.5469L56.7812 119.234C56.2188 123.151 55.6719 125.948 55.1406 127.625C54.6094 129.292 53.9375 130.479 53.125 131.188C52.3125 131.896 51.1719 132.25 49.7031 132.25C48.9844 132.25 48.4688 132.161 48.1562 131.984V128.125C48.3021 128.198 48.526 128.234 48.8281 128.234C49.4219 128.234 49.9115 127.87 50.2969 127.141C50.6823 126.411 51.0417 125.229 51.375 123.594C51.7188 121.948 52.0677 119.875 52.4219 117.375L53.4688 109.984H68.3438V132H63.9062V113.797ZM88.2031 132L86.25 126.375H77.8594L75.9062 132H71.2969L79.3281 109.984H84.7656L92.7656 132H88.2031ZM82.0469 113.375L81.9531 113.719C81.849 114.094 81.724 114.521 81.5781 115C81.4323 115.479 80.5365 118.115 78.8906 122.906H85.2188L83.0469 116.578L82.375 114.453L82.0469 113.375ZM95.75 132V109.984H99.8438V122.781C99.8438 123.896 99.8021 125.328 99.7188 127.078L109.297 109.984H114.484V132H110.391V119.016C110.391 118.203 110.432 116.88 110.516 115.047L101 132H95.75ZM105.219 108.344C103.135 108.344 101.573 107.917 100.531 107.062C99.5 106.208 98.9427 104.865 98.8594 103.031H102.359C102.464 105.104 103.417 106.141 105.219 106.141C107.021 106.141 107.974 105.104 108.078 103.031H111.578C111.495 104.875 110.932 106.224 109.891 107.078C108.859 107.922 107.302 108.344 105.219 108.344ZM132.969 132V122.562H123.375V132H118.766V109.984H123.375V118.75H132.969V109.984H137.578V132H132.969ZM141 125.609V121.797H149.125V125.609H141ZM162.484 113.547V132H157.875V113.547H150.766V109.984H169.609V113.547H162.484ZM175.297 132.312C174.557 132.312 173.823 132.219 173.094 132.031C172.365 131.854 171.781 131.635 171.344 131.375L172.625 127.531C173.552 127.969 174.385 128.188 175.125 128.188C175.615 128.188 176.031 128.094 176.375 127.906C176.729 127.719 177.057 127.422 177.359 127.016C177.672 126.599 178.109 125.776 178.672 124.547L169.984 109.984H174.781L180.844 120.609L185.5 109.984H190.172L181.969 127.031C181.25 128.531 180.589 129.63 179.984 130.328C179.391 131.016 178.719 131.521 177.969 131.844C177.229 132.156 176.339 132.312 175.297 132.312ZM210.125 116.953C210.125 118.37 209.802 119.635 209.156 120.75C208.51 121.865 207.583 122.729 206.375 123.344C205.177 123.948 203.75 124.25 202.094 124.25H196.625V132H192.016V109.984H201.906C204.542 109.984 206.568 110.594 207.984 111.812C209.411 113.021 210.125 114.734 210.125 116.953ZM205.484 117.031C205.484 114.719 204.12 113.562 201.391 113.562H196.625V120.703H201.516C202.786 120.703 203.766 120.391 204.453 119.766C205.141 119.13 205.484 118.219 205.484 117.031Z" fill="white"/>
<path d="M3.75 156.219L2.76562 161H1.47656L2.46094 156.219H0.105469V154.953H2.74219L3.65625 150.629H0.703125V149.363H3.91406L4.95703 144.582H6.24609L5.21484 149.363H9.46875L10.5 144.582H11.7891L10.7578 149.363H13.2305V150.629H10.5L9.58594 154.953H12.6328V156.219H9.31641L8.28516 161H6.99609L8.00391 156.219H3.75ZM4.04297 154.953H8.28516L9.19922 150.629H4.98047L4.04297 154.953ZM15.5039 161V165.781H13.5938V159.465H14.9883C15.5742 158.488 16.082 157.102 16.5117 155.305C16.9414 153.508 17.3359 151.18 17.6953 148.32H25.2422V159.465H26.9531V165.781H25.043V161H15.5039ZM17.3086 159.465H23.1328V149.855H19.5469C19.2578 151.98 18.9375 153.832 18.5859 155.41C18.2344 156.98 17.8086 158.332 17.3086 159.465ZM39.7148 154.648C39.7148 156.867 39.2266 158.52 38.25 159.605C37.2734 160.691 35.8555 161.234 33.9961 161.234C32.1445 161.234 30.7461 160.672 29.8008 159.547C28.8555 158.414 28.3828 156.781 28.3828 154.648C28.3828 152.461 28.8555 150.82 29.8008 149.727C30.7539 148.633 32.1758 148.086 34.0664 148.086C36.0039 148.086 37.4297 148.621 38.3438 149.691C39.2578 150.754 39.7148 152.406 39.7148 154.648ZM37.5 154.648C37.5 152.898 37.2383 151.629 36.7148 150.84C36.1992 150.043 35.3281 149.645 34.1016 149.645C32.8672 149.645 31.9727 150.051 31.418 150.863C30.8711 151.668 30.5977 152.93 30.5977 154.648C30.5977 156.32 30.8672 157.578 31.4062 158.422C31.9531 159.258 32.8086 159.676 33.9727 159.676C35.2383 159.676 36.1406 159.27 36.6797 158.457C37.2266 157.645 37.5 156.375 37.5 154.648ZM47.2148 161.234C45.4414 161.234 44.0859 160.676 43.1484 159.559C42.2188 158.434 41.7539 156.797 41.7539 154.648C41.7539 152.516 42.2227 150.891 43.1602 149.773C44.0977 148.648 45.4414 148.086 47.1914 148.086C48.4883 148.086 49.5625 148.422 50.4141 149.094C51.2734 149.766 51.8125 150.691 52.0312 151.871L49.8633 152.035C49.7539 151.332 49.4766 150.773 49.0312 150.359C48.5859 149.945 47.9531 149.738 47.1328 149.738C46.0156 149.738 45.207 150.109 44.707 150.852C44.207 151.594 43.957 152.844 43.957 154.602C43.957 156.289 44.2227 157.539 44.7539 158.352C45.2852 159.164 46.0859 159.57 47.1562 159.57C47.9062 159.57 48.5312 159.367 49.0312 158.961C49.5391 158.555 49.8516 157.93 49.9688 157.086L52.1016 157.227C51.9922 158.039 51.7188 158.746 51.2812 159.348C50.8516 159.949 50.2891 160.414 49.5938 160.742C48.9062 161.07 48.1133 161.234 47.2148 161.234ZM54.9727 165.98C54.4102 165.98 53.9258 165.938 53.5195 165.852V164.27C53.8164 164.316 54.1445 164.34 54.5039 164.34C55.1602 164.34 55.7656 164.094 56.3203 163.602C56.8828 163.117 57.3828 162.23 57.8203 160.941L52.793 148.32H55.043L57.7148 155.328C57.9102 155.828 58.1172 156.395 58.3359 157.027C58.5625 157.66 58.7383 158.219 58.8633 158.703C59.0586 158.148 59.2539 157.598 59.4492 157.051C59.6523 156.504 59.8477 155.957 60.0352 155.41L62.4609 148.32H64.6875L59.8125 161C59.5469 161.672 59.293 162.258 59.0508 162.758C58.8086 163.266 58.5742 163.684 58.3477 164.012C57.8945 164.676 57.3906 165.168 56.8359 165.488C56.2891 165.816 55.668 165.98 54.9727 165.98ZM68.5078 149.855V161H66.3984V148.32H72.7852V149.855H68.5078Z" fill="white"/>
<path d="M28.125 57.3906V68.8281H3.75V57.3906H28.125ZM60.0938 57.3906V68.8281H35.7188V57.3906H60.0938ZM116.391 18.4375L102.984 89.9219H91.5938L105.234 18.4375H116.391ZM172.219 57.3906V68.8281H147.844V57.3906H172.219ZM204.188 57.3906V68.8281H179.812V57.3906H204.188Z" fill="white"/>
</svg>
