<svg width="6859" height="1080" viewBox="0 0 6859 1080" fill="none" xmlns="http://www.w3.org/2000/svg">
<path fill-rule="evenodd" clip-rule="evenodd" d="M0 1077.95C62.8677 1018.22 129.074 962.1 198.299 909.872C459.689 712.745 722.884 602.675 933.125 538.977C851.602 551.309 654.762 569.712 440.489 470.284C140.967 331.439 25.7666 63.852 0 3.71282e-05C53.1075 136.233 126.337 380.999 96.0006 684.968C82.4497 819.797 50.1372 952.071 0 1077.95ZM4488.43 539.966C4411.31 531.712 4335.24 516.81 4261.07 495.519C4260.76 489.572 4260.31 483.645 4259.71 477.742C4233.72 219.141 3931.24 -35.4879 3555.34 4.0853C3671.76 162.466 3821.94 293.284 3995.14 387.174C4079.8 432.806 4168.98 469.086 4261.07 495.519C4262.39 520.69 4261.19 546.221 4257.63 571.826C4202.25 585.281 4147.85 602.847 4094.9 624.422C3788.73 749.598 3621.16 975.081 3555.34 1076C3936.72 1103.57 4221.18 833.777 4257.63 571.826C4333.13 553.482 4410.46 542.777 4488.43 539.966ZM2118.25 549.577C2102.89 469.656 2062.61 331.584 1947.48 210.837C1665.01 -85.4565 1209.89 15.2916 1185.12 21.2047V1077.95C1223.1 996.522 1306.66 847.716 1473.13 725.914C1742.04 529.239 2036.04 542.948 2118.25 549.577ZM2934.96 453.341C3052.64 500.603 3176.89 529.485 3303.34 538.977C3272.7 627.261 3226.33 709.264 3166.48 781.015C2895.03 1104.16 2443.21 1082.56 2370.25 1077.95C2419.67 997.543 2537.56 781.591 2522.7 487.227C2513.6 314.584 2461.17 147.018 2370.25 3.71282e-05C2448.09 110.223 2626.57 329.057 2934.96 453.341ZM5004.37 490.026C5177.93 623.574 5434.35 648.557 5673.56 538.938C5419.9 423.095 5177.72 419.895 5004.19 487.482C4984.25 209.875 4816.72 28.9799 4788.97 3.71282e-05C4788.06 67.5018 4794.25 257.406 4922.24 411.081C4946.18 439.821 4972.97 465.599 5002.13 488.29C4895.73 530.209 4815.38 598.849 4774.41 684.469C4709.61 819.28 4750.64 979.333 4788.97 1077.92C4831.16 1034.46 4984.34 865.997 5004.07 597.681C5006.81 560.386 5006.73 524.466 5004.37 490.026ZM6858.68 538.977L5925.55 3.71282e-05C5940.91 10.7189 6236.6 227.055 6209.22 589.037C6186.18 890.662 5956.97 1056.09 5925.55 1077.95L6858.68 538.977Z" fill="url(#paint0_linear_379_112)"/>
<defs>
<linearGradient id="paint0_linear_379_112" x1="0" y1="-76" x2="7200" y2="-76" gradientUnits="userSpaceOnUse">
<stop stop-color="#6CD797"/>
<stop offset="0.15625" stop-color="#8A65FF"/>
<stop offset="0.302083" stop-color="#FF6B88"/>
<stop offset="0.499725" stop-color="#FA9574"/>
<stop offset="0.681156" stop-color="#F7E866"/>
<stop offset="0.848958" stop-color="#BBDF80"/>
<stop offset="1" stop-color="#6CD797"/>
</linearGradient>
</defs>
</svg>
