<svg width="13968" height="1080" viewBox="0 0 13968 1080" fill="none" xmlns="http://www.w3.org/2000/svg">
<path fill-rule="evenodd" clip-rule="evenodd" d="M11597.4 539.966C11520.3 531.712 11444.2 516.81 11370.1 495.519C11369.8 489.572 11369.3 483.645 11368.7 477.742C11342.7 219.141 11040.2 -35.488 10664.3 4.08526C10780.8 162.466 10930.9 293.284 11104.1 387.174C11188.8 432.806 11278 469.086 11370.1 495.519C11371.4 520.69 11370.2 546.221 11366.6 571.826C11311.3 585.281 11256.9 602.847 11203.9 624.422C10897.7 749.598 10730.2 975.081 10664.3 1076C11045.7 1103.57 11330.2 833.777 11366.6 571.826C11442.1 553.482 11519.5 542.777 11597.4 539.966ZM8042.13 538.977C7960.6 551.309 7763.76 569.712 7549.49 470.284C7249.97 331.439 7134.77 63.852 7109 4.15087e-07C7162.11 136.233 7235.34 380.999 7205 684.968C7191.45 819.797 7159.14 952.071 7109 1077.95C7171.87 1018.22 7238.07 962.1 7307.3 909.872C7568.69 712.745 7831.88 602.675 8042.13 538.977ZM9227.25 549.577C9211.89 469.656 9171.61 331.584 9056.48 210.837C8774.01 -85.4566 8318.89 15.2916 8294.12 21.2046V1077.95C8332.1 996.522 8415.66 847.716 8582.13 725.914C8851.04 529.239 9145.04 542.948 9227.25 549.577ZM10044 453.341C10161.6 500.603 10285.9 529.485 10412.3 538.977C10381.7 627.261 10335.3 709.264 10275.5 781.015C10004 1104.16 9552.21 1082.56 9479.25 1077.95C9528.67 997.543 9646.56 781.591 9631.7 487.227C9622.6 314.584 9570.17 147.018 9479.25 4.15087e-07C9557.09 110.223 9735.57 329.057 10044 453.341ZM12113.4 490.026C12286.9 623.574 12543.4 648.557 12782.6 538.938C12528.9 423.095 12286.7 419.895 12113.2 487.481C12093.3 209.875 11925.7 28.9798 11898 4.15087e-07C11897.1 67.5018 11903.2 257.406 12031.2 411.081C12055.2 439.821 12082 465.599 12111.1 488.29C12004.7 530.209 11924.4 598.849 11883.4 684.469C11818.6 819.28 11859.6 979.333 11898 1077.92C11940.2 1034.46 12093.3 865.997 12113.1 597.681C12115.8 560.386 12115.7 524.466 12113.4 490.026ZM13967.7 538.977L13034.6 4.15087e-07C13049.9 10.7188 13345.6 227.055 13318.2 589.037C13295.2 890.662 13066 1056.09 13034.6 1077.95L13967.7 538.977Z" fill="url(#paint0_linear_379_102)"/>
<path fill-rule="evenodd" clip-rule="evenodd" d="M933.125 538.977C851.602 551.309 654.762 569.712 440.489 470.284C140.967 331.439 25.7666 63.852 0 0C53.1075 136.233 126.337 380.999 96.0006 684.968C82.4497 819.797 50.1372 952.071 0 1077.95C62.8677 1018.22 129.074 962.1 198.299 909.872C459.689 712.745 722.884 602.675 933.125 538.977ZM2118.25 549.577C2102.89 469.656 2062.61 331.584 1947.48 210.837C1665.01 -85.4566 1209.89 15.2916 1185.12 21.2046V1077.95C1223.1 996.522 1306.66 847.716 1473.13 725.914C1742.04 529.239 2036.04 542.948 2118.25 549.577ZM2934.96 453.341C3052.64 500.603 3176.89 529.485 3303.34 538.977C3272.7 627.261 3226.33 709.264 3166.48 781.015C2895.03 1104.16 2443.21 1082.56 2370.25 1077.95C2419.67 997.543 2537.56 781.591 2522.7 487.227C2513.6 314.584 2461.17 147.018 2370.25 0C2448.09 110.223 2626.57 329.057 2934.96 453.341ZM4488.43 539.966C4411.31 531.712 4335.24 516.81 4261.07 495.519C4260.76 489.572 4260.31 483.645 4259.71 477.742C4233.72 219.141 3931.24 -35.488 3555.34 4.08526C3671.76 162.466 3821.94 293.284 3995.14 387.174C4079.8 432.806 4168.98 469.086 4261.07 495.519C4262.39 520.69 4261.19 546.221 4257.63 571.826C4202.25 585.281 4147.85 602.847 4094.9 624.422C3788.73 749.598 3621.16 975.081 3555.34 1076C3936.72 1103.57 4221.18 833.777 4257.63 571.826C4333.13 553.482 4410.46 542.777 4488.43 539.966ZM5004.37 490.026C5177.93 623.574 5434.35 648.557 5673.56 538.938C5419.9 423.095 5177.72 419.895 5004.19 487.481C4984.25 209.875 4816.72 28.9798 4788.97 0C4788.06 67.5018 4794.25 257.406 4922.24 411.081C4946.18 439.821 4972.97 465.599 5002.13 488.29C4895.73 530.209 4815.38 598.849 4774.41 684.469C4709.61 819.28 4750.64 979.333 4788.97 1077.92C4831.16 1034.46 4984.34 865.997 5004.07 597.681C5006.81 560.386 5006.73 524.466 5004.37 490.026ZM6858.68 538.977L5925.55 0C5940.91 10.7188 6236.6 227.055 6209.22 589.037C6186.18 890.662 5956.97 1056.09 5925.55 1077.95L6858.68 538.977Z" fill="url(#paint1_linear_379_102)"/>
<defs>
<linearGradient id="paint0_linear_379_102" x1="6936.5" y1="-76.9998" x2="14136.5" y2="-76.9998" gradientUnits="userSpaceOnUse">
<stop stop-color="#8A65FF"/>
<stop offset="0.302083" stop-color="#FF6B88"/>
<stop offset="0.499725" stop-color="#FA9574"/>
<stop offset="0.681156" stop-color="#F7E866"/>
<stop offset="0.848958" stop-color="#BBDF80"/>
<stop offset="1" stop-color="#6CD797"/>
</linearGradient>
<linearGradient id="paint1_linear_379_102" x1="7027.5" y1="1157" x2="-172.5" y2="1157" gradientUnits="userSpaceOnUse">
<stop stop-color="#8A65FF"/>
<stop offset="0.302083" stop-color="#FF6B88"/>
<stop offset="0.499725" stop-color="#FA9574"/>
<stop offset="0.681156" stop-color="#F7E866"/>
<stop offset="0.848958" stop-color="#BBDF80"/>
<stop offset="1" stop-color="#6CD797"/>
</linearGradient>
</defs>
</svg>
