<svg width="6857" height="1080" viewBox="0 0 6857 1080" fill="none" xmlns="http://www.w3.org/2000/svg">
<path fill-rule="evenodd" clip-rule="evenodd" d="M933.125 538.977C851.602 551.309 654.762 569.712 440.489 470.284C140.967 331.439 25.7666 63.852 0 0C53.1075 136.233 126.337 380.999 96.0006 684.968C82.4497 819.797 50.1372 952.071 0 1077.95C62.8677 1018.22 129.074 962.1 198.299 909.872C459.689 712.745 722.884 602.675 933.125 538.977ZM2117.89 549.577C2102.53 469.656 2062.25 331.584 1947.13 210.837C1664.65 -85.4566 1209.53 15.2916 1184.77 21.2046V1077.95C1222.74 996.522 1306.3 847.716 1472.77 725.914C1741.68 529.239 2035.68 542.948 2117.89 549.577ZM2934.24 453.341C3051.92 500.603 3176.17 529.485 3302.62 538.977C3271.98 627.261 3225.61 709.264 3165.76 781.015C2894.31 1104.16 2442.49 1082.56 2369.53 1077.95C2418.95 997.543 2536.84 781.591 2521.98 487.227C2512.88 314.584 2460.45 147.018 2369.53 0C2447.37 110.223 2625.85 329.057 2934.24 453.341ZM4487.35 539.966C4410.24 531.712 4334.17 516.81 4260 495.519C4259.69 489.572 4259.24 483.645 4258.64 477.742C4232.65 219.141 3930.17 -35.488 3554.27 4.08526C3670.69 162.466 3820.87 293.284 3994.06 387.174C4078.73 432.806 4167.91 469.086 4260 495.519C4261.32 520.69 4260.12 546.221 4256.56 571.826C4201.18 585.281 4146.78 602.847 4093.83 624.422C3787.66 749.598 3620.08 975.081 3554.27 1076C3935.65 1103.57 4220.11 833.777 4256.56 571.826C4332.06 553.482 4409.39 542.777 4487.35 539.966ZM5002.94 490.026C5176.49 623.574 5432.92 648.557 5672.12 538.938C5418.46 423.095 5176.28 419.895 5002.76 487.481C4982.82 209.875 4815.28 28.9798 4787.53 0C4786.62 67.5018 4792.81 257.406 4920.8 411.081C4944.74 439.821 4971.53 465.599 5000.69 488.29C4894.29 530.209 4813.95 598.849 4772.97 684.469C4708.17 819.28 4749.2 979.333 4787.53 1077.92C4829.72 1034.46 4982.9 865.997 5002.63 597.681C5005.37 560.386 5005.29 524.466 5002.94 490.026ZM6856.89 538.977L5923.76 0C5939.12 10.7188 6234.8 227.055 6207.42 589.036C6184.38 890.662 5955.17 1056.09 5923.76 1077.95L6856.89 538.977Z" fill="url(#paint0_linear_368_2)"/>
<defs>
<linearGradient id="paint0_linear_368_2" x1="-172.5" y1="-78.7501" x2="7027.5" y2="-78.7501" gradientUnits="userSpaceOnUse">
<stop stop-color="#8A65FF"/>
<stop offset="0.302083" stop-color="#FF6B88"/>
<stop offset="0.499725" stop-color="#FA9574"/>
<stop offset="0.681156" stop-color="#F7E866"/>
<stop offset="0.848958" stop-color="#BBDF80"/>
<stop offset="1" stop-color="#6CD797"/>
</linearGradient>
</defs>
</svg>
