<svg width="819" height="100" viewBox="0 0 819 100" fill="none" xmlns="http://www.w3.org/2000/svg">
<path fill-rule="evenodd" clip-rule="evenodd" d="M30.0312 41.9102C32.8854 39.7227 34.3125 36.6706 34.3125 32.7539C34.3125 29.8164 33.3646 27.3893 31.4688 25.4727C29.5729 23.5352 26.875 22.3581 23.375 21.9414C26.0417 21.3372 28.1042 20.1497 29.5625 18.3789C31.0208 16.6081 31.75 14.4206 31.75 11.8164C31.75 4.69141 26.5833 1.12891 16.25 1.12891H0.25V45.1602H18.125C23.2083 45.1602 27.1771 44.0768 30.0312 41.9102ZM23.3125 7.44141C24.9375 8.46224 25.75 10.1602 25.75 12.5352C25.75 15.0143 24.9583 16.8581 23.375 18.0664C21.8125 19.2539 19.4375 19.8477 16.25 19.8477H6.21875V5.91016H16.25C19.3333 5.91016 21.6875 6.42057 23.3125 7.44141ZM17.3438 24.5039C24.6354 24.5039 28.2812 27.0977 28.2812 32.2852C28.2812 34.9727 27.4479 36.9935 25.7812 38.3477C24.1146 39.7018 21.4583 40.3789 17.8125 40.3789H6.21875V24.5039H17.3438ZM72.3438 41.6289C75.0312 39.2747 76.375 36.1497 76.375 32.2539C76.375 28.2956 75.0104 25.2227 72.2812 23.0352C69.5729 20.8477 65.7604 19.7539 60.8438 19.7539H48.9062V1.12891H42.9375V45.1602H61.2188C65.9479 45.1602 69.6562 43.9831 72.3438 41.6289ZM67.8125 26.5352C69.5208 27.8685 70.375 29.7956 70.375 32.3164C70.375 34.8997 69.5625 36.8997 67.9375 38.3164C66.3125 39.7331 63.7917 40.4414 60.375 40.4414H48.9062V24.5039H60.125C63.5417 24.5039 66.1042 25.181 67.8125 26.5352ZM83.125 1.12891V45.1602H89.0938V1.12891H83.125ZM118.5 45.1914C119.917 45.5872 121.271 45.7852 122.562 45.7852C124.354 45.7852 125.896 45.4935 127.188 44.9102C128.5 44.3268 129.708 43.3997 130.812 42.1289C131.917 40.8581 133.354 38.556 135.125 35.2227L153.156 1.12891H146.75L134.75 25.6289L120.719 1.12891H113.906L131.812 30.9414C129.688 34.8164 128.26 37.2539 127.531 38.2539C126.802 39.2331 126.073 39.931 125.344 40.3477C124.635 40.7435 123.75 40.9414 122.688 40.9414C121.188 40.9414 119.458 40.3268 117.5 39.0977L114.969 43.5977C115.927 44.2643 117.104 44.7956 118.5 45.1914ZM166.25 10.0664C168.958 6.92057 172.75 5.34766 177.625 5.34766C180.729 5.34766 183.406 6.02474 185.656 7.37891C187.927 8.73307 189.573 10.6914 190.594 13.2539L196.25 11.3789C194.771 7.77474 192.458 5.05599 189.312 3.22266C186.167 1.38932 182.25 0.472656 177.562 0.472656C170.854 0.472656 165.604 2.46224 161.812 6.44141C158.021 10.4206 156.125 15.9206 156.125 22.9414C156.125 27.6289 156.969 31.6914 158.656 35.1289C160.365 38.5456 162.833 41.181 166.062 43.0352C169.312 44.8685 173.156 45.7852 177.594 45.7852C181.927 45.7852 185.729 44.7956 189 42.8164C192.292 40.8372 194.844 37.9518 196.656 34.1602L191.781 31.7227C188.677 37.8268 184.042 40.8789 177.875 40.8789C173.062 40.8789 169.24 39.2435 166.406 35.9727C163.594 32.681 162.188 28.3372 162.188 22.9414C162.188 17.4831 163.542 13.1914 166.25 10.0664ZM234.094 6.16016V45.1602H240.062V1.12891H204.312V45.1602H210.281V6.16016H234.094ZM250.375 1.12891V45.1602H285.062V40.2852H256.344V24.9414H281.906V20.1289H256.344V6.00391H283.781V1.12891H250.375ZM293.062 1.12891V45.1602H341.219V1.12891H335.406V40.1602H320.125V1.12891H314.312V40.1602H299.031V1.12891H293.062ZM381.531 24.7539V45.1602H387.5V1.12891H381.531V19.7539H357.719V1.12891H351.75V45.1602H357.719V24.7539H381.531ZM436.812 35.0352C438.583 31.5768 439.469 27.5456 439.469 22.9414C439.469 18.3164 438.594 14.306 436.844 10.9102C435.115 7.51432 432.604 4.93099 429.312 3.16016C426.021 1.36849 422.135 0.472656 417.656 0.472656C410.781 0.472656 405.417 2.46224 401.562 6.44141C397.708 10.3997 395.781 15.8997 395.781 22.9414C395.781 27.5664 396.646 31.6185 398.375 35.0977C400.104 38.556 402.604 41.2018 405.875 43.0352C409.167 44.8685 413.073 45.7852 417.594 45.7852C422.073 45.7852 425.958 44.8581 429.25 43.0039C432.542 41.1497 435.062 38.4935 436.812 35.0352ZM429.25 10.0352C432 13.1602 433.375 17.4622 433.375 22.9414C433.375 28.6706 432.01 33.1081 429.281 36.2539C426.573 39.3789 422.677 40.9414 417.594 40.9414C412.656 40.9414 408.792 39.3268 406 36.0977C403.229 32.8477 401.844 28.4622 401.844 22.9414C401.844 17.3789 403.219 13.056 405.969 9.97266C408.719 6.88932 412.615 5.34766 417.656 5.34766C422.656 5.34766 426.521 6.91016 429.25 10.0352ZM469.281 43.2852C472.031 44.9518 475.531 45.7852 479.781 45.7852C484.74 45.7852 488.656 44.5872 491.531 42.1914C494.427 39.7747 495.875 36.5352 495.875 32.4727C495.875 29.7227 494.99 27.4414 493.219 25.6289C491.448 23.7956 488.979 22.6393 485.812 22.1602C488.646 21.4935 490.812 20.2956 492.312 18.5664C493.812 16.8372 494.562 14.6497 494.562 12.0039C494.562 8.48307 493.25 5.69141 490.625 3.62891C488 1.54557 484.479 0.503906 480.062 0.503906C475.896 0.503906 472.438 1.37891 469.688 3.12891C466.938 4.87891 464.833 7.55599 463.375 11.1602L468.938 13.0664C470 10.3581 471.427 8.39974 473.219 7.19141C475.01 5.96224 477.219 5.34766 479.844 5.34766C482.656 5.34766 484.812 5.99349 486.312 7.28516C487.833 8.55599 488.594 10.306 488.594 12.5352C488.594 15.0977 487.688 17.0039 485.875 18.2539C484.083 19.4831 481.302 20.0977 477.531 20.0977H475.312V24.7227H477.531C481.74 24.7227 484.844 25.3372 486.844 26.5664C488.844 27.7956 489.844 29.7956 489.844 32.5664C489.844 35.2331 488.927 37.306 487.094 38.7852C485.26 40.2643 482.75 41.0039 479.562 41.0039C474.083 41.0039 470.104 38.1706 467.625 32.5039L462.469 34.9102C464.26 38.806 466.531 41.5977 469.281 43.2852ZM530.5 32.2852L535.531 45.1602H541.625L523.938 1.12891H517.156L499.188 45.1602H505.375L510.438 32.2852H530.5ZM520.188 6.50391L520.469 5.62891L521.312 8.22266C521.896 10.0352 522.479 11.6602 523.062 13.0977L528.719 27.6289H512.25L517.875 13.1602C518.896 10.4518 519.667 8.23307 520.188 6.50391ZM575.969 6.16016V45.1602H581.938V1.12891H546.188V45.1602H552.156V6.16016H575.969ZM592.25 1.12891V45.1602H599.438L622.625 7.97266C622.5 10.7227 622.438 13.3685 622.438 15.9102V45.1602H627.75V1.12891H620.812L597.375 38.5664C597.542 35.2331 597.625 32.3789 597.625 30.0039V1.12891H592.25ZM646.375 10.0664C649.083 6.92057 652.875 5.34766 657.75 5.34766C660.854 5.34766 663.531 6.02474 665.781 7.37891C668.052 8.73307 669.698 10.6914 670.719 13.2539L676.375 11.3789C674.896 7.77474 672.583 5.05599 669.438 3.22266C666.292 1.38932 662.375 0.472656 657.688 0.472656C650.979 0.472656 645.729 2.46224 641.938 6.44141C638.146 10.4206 636.25 15.9206 636.25 22.9414C636.25 27.6289 637.094 31.6914 638.781 35.1289C640.49 38.5456 642.958 41.181 646.188 43.0352C649.438 44.8685 653.281 45.7852 657.719 45.7852C662.052 45.7852 665.854 44.7956 669.125 42.8164C672.417 40.8372 674.969 37.9518 676.781 34.1602L671.906 31.7227C668.802 37.8268 664.167 40.8789 658 40.8789C653.188 40.8789 649.365 39.2435 646.531 35.9727C643.719 32.681 642.312 28.3372 642.312 22.9414C642.312 17.4831 643.667 13.1914 646.375 10.0664ZM709.25 32.2852L714.281 45.1602H720.375L702.688 1.12891H695.906L677.938 45.1602H684.125L689.188 32.2852H709.25ZM698.938 6.50391L699.219 5.62891L700.062 8.22266C700.646 10.0352 701.229 11.6602 701.812 13.0977L707.469 27.6289H691L696.625 13.1602C697.646 10.4518 698.417 8.23307 698.938 6.50391ZM755.531 24.7539V45.1602H761.5V1.12891H755.531V19.7539H731.719V1.12891H725.75V45.1602H731.719V24.7539H755.531ZM801.406 41.6289C804.094 39.2747 805.438 36.1497 805.438 32.2539C805.438 28.2956 804.073 25.2227 801.344 23.0352C798.635 20.8477 794.823 19.7539 789.906 19.7539H777.969V1.12891H772V45.1602H790.281C795.01 45.1602 798.719 43.9831 801.406 41.6289ZM796.875 26.5352C798.583 27.8685 799.438 29.7956 799.438 32.3164C799.438 34.8997 798.625 36.8997 797 38.3164C795.375 39.7331 792.854 40.4414 789.438 40.4414H777.969V24.5039H789.188C792.604 24.5039 795.167 25.181 796.875 26.5352ZM812.188 1.12891V45.1602H818.156V1.12891H812.188ZM84.5156 88.957V99.1602H87.5V77.1445H84.5156V86.457H72.6094V77.1445H69.625V99.1602H72.6094V88.957H84.5156ZM105.844 92.7227L108.359 99.1602H111.406L102.562 77.1445H99.1719L90.1875 99.1602H93.2812L95.8125 92.7227H105.844ZM100.688 79.832L100.828 79.3945L101.25 80.6914C101.542 81.5977 101.833 82.4102 102.125 83.1289L104.953 90.3945H96.7188L99.5312 83.1602C100.042 81.806 100.427 80.6966 100.688 79.832ZM114.094 77.1445V99.1602H138.172V77.1445H135.266V96.6602H127.625V77.1445H124.719V96.6602H117.078V77.1445H114.094ZM143.438 77.1445V99.1602H147.031L158.625 80.5664C158.562 81.9414 158.531 83.2643 158.531 84.5352V99.1602H161.188V77.1445H157.719L146 95.8633C146.083 94.1966 146.125 92.7695 146.125 91.582V77.1445H143.438ZM190.328 88.7383C191.693 87.5091 192.375 85.8529 192.375 83.7695C192.375 81.6654 191.698 80.0352 190.344 78.8789C188.99 77.7227 187.078 77.1445 184.609 77.1445H175.344V99.1602H178.328V90.582H184.797C187.13 90.582 188.974 89.9674 190.328 88.7383ZM184.25 79.5352C187.667 79.5352 189.375 80.957 189.375 83.8008C189.375 86.7487 187.708 88.2227 184.375 88.2227H178.328V79.5352H184.25ZM207.625 92.7227L210.141 99.1602H213.188L204.344 77.1445H200.953L191.969 99.1602H195.062L197.594 92.7227H207.625ZM202.469 79.832L202.609 79.3945L203.031 80.6914C203.323 81.5977 203.615 82.4102 203.906 83.1289L206.734 90.3945H198.5L201.312 83.1602C201.823 81.806 202.208 80.6966 202.469 79.832ZM230.578 97.3945C231.922 96.2174 232.594 94.6549 232.594 92.707C232.594 90.7279 231.911 89.1914 230.547 88.0977C229.193 87.0039 227.286 86.457 224.828 86.457H218.859V79.582H230.344V77.1445H215.875V99.1602H225.016C227.38 99.1602 229.234 98.5716 230.578 97.3945ZM228.312 89.8477C229.167 90.5143 229.594 91.4779 229.594 92.7383C229.594 94.0299 229.188 95.0299 228.375 95.7383C227.562 96.4466 226.302 96.8008 224.594 96.8008H218.859V88.832H224.469C226.177 88.832 227.458 89.1706 228.312 89.8477ZM255.906 94.0977C256.792 92.3685 257.234 90.3529 257.234 88.0508C257.234 85.7383 256.797 83.7331 255.922 82.0352C255.057 80.3372 253.802 79.0456 252.156 78.1602C250.51 77.2643 248.568 76.8164 246.328 76.8164C242.891 76.8164 240.208 77.8112 238.281 79.8008C236.354 81.7799 235.391 84.5299 235.391 88.0508C235.391 90.3633 235.823 92.3893 236.688 94.1289C237.552 95.8581 238.802 97.181 240.438 98.0977C242.083 99.0143 244.036 99.4727 246.297 99.4727C248.536 99.4727 250.479 99.0091 252.125 98.082C253.771 97.1549 255.031 95.8268 255.906 94.0977ZM252.125 81.5977C253.5 83.1602 254.188 85.3112 254.188 88.0508C254.188 90.9154 253.505 93.1341 252.141 94.707C250.786 96.2695 248.839 97.0508 246.297 97.0508C243.828 97.0508 241.896 96.2435 240.5 94.6289C239.115 93.0039 238.422 90.8112 238.422 88.0508C238.422 85.2695 239.109 83.1081 240.484 81.5664C241.859 80.0247 243.807 79.2539 246.328 79.2539C248.828 79.2539 250.76 80.0352 252.125 81.5977ZM270.031 99.1602V79.582H277.594V77.1445H259.5V79.582H267.062V99.1602H270.031ZM295.859 88.957V99.1602H298.844V77.1445H295.859V86.457H283.953V77.1445H280.969V99.1602H283.953V88.957H295.859ZM304.094 77.1445V99.1602H307.688L319.281 80.5664C319.219 81.9414 319.188 83.2643 319.188 84.5352V99.1602H321.844V77.1445H318.375L306.656 95.8633C306.74 94.1966 306.781 92.7695 306.781 91.582V77.1445H304.094ZM330.078 77.1445H327.094V99.1602H330.078V89.082C330.484 89.082 330.969 89.0143 331.531 88.8789C332.104 88.7435 332.521 88.6133 332.781 88.4883L339.453 99.1602H342.922L334.969 87.0508C335.469 86.6862 336.401 85.5195 337.766 83.5508L342.188 77.1445H339.062L335.859 81.9102C334.745 83.5977 333.932 84.7331 333.422 85.3164C332.911 85.8893 332.422 86.2852 331.953 86.5039C331.484 86.7122 330.859 86.8164 330.078 86.8164V77.1445ZM345.75 77.1445V99.1602H349.344L360.938 80.5664C360.875 81.9414 360.844 83.2643 360.844 84.5352V99.1602H363.5V77.1445H360.031L348.312 95.8633C348.396 94.1966 348.438 92.7695 348.438 91.582V77.1445H345.75ZM381.719 81.6133C383.073 80.0404 384.969 79.2539 387.406 79.2539C388.958 79.2539 390.297 79.5924 391.422 80.2695C392.557 80.9466 393.38 81.9258 393.891 83.207L396.719 82.2695C395.979 80.4674 394.823 79.1081 393.25 78.1914C391.677 77.2747 389.719 76.8164 387.375 76.8164C384.021 76.8164 381.396 77.8112 379.5 79.8008C377.604 81.7904 376.656 84.5404 376.656 88.0508C376.656 90.3945 377.078 92.4258 377.922 94.1445C378.776 95.8529 380.01 97.1706 381.625 98.0977C383.25 99.0143 385.172 99.4727 387.391 99.4727C389.557 99.4727 391.458 98.9779 393.094 97.9883C394.74 96.9987 396.016 95.556 396.922 93.6602L394.484 92.4414C392.932 95.4935 390.615 97.0195 387.531 97.0195C385.125 97.0195 383.214 96.2018 381.797 94.5664C380.391 92.9206 379.688 90.7487 379.688 88.0508C379.688 85.3216 380.365 83.1758 381.719 81.6133ZM403.766 77.1445H400.781V99.1602H403.766V89.082C404.172 89.082 404.656 89.0143 405.219 88.8789C405.792 88.7435 406.208 88.6133 406.469 88.4883L413.141 99.1602H416.609L408.656 87.0508C409.156 86.6862 410.089 85.5195 411.453 83.5508L415.875 77.1445H412.75L409.547 81.9102C408.432 83.5977 407.62 84.7331 407.109 85.3164C406.599 85.8893 406.109 86.2852 405.641 86.5039C405.172 86.7122 404.547 86.8164 403.766 86.8164V77.1445ZM438.469 94.0977C439.354 92.3685 439.797 90.3529 439.797 88.0508C439.797 85.7383 439.359 83.7331 438.484 82.0352C437.62 80.3372 436.365 79.0456 434.719 78.1602C433.073 77.2643 431.13 76.8164 428.891 76.8164C425.453 76.8164 422.771 77.8112 420.844 79.8008C418.917 81.7799 417.953 84.5299 417.953 88.0508C417.953 90.3633 418.385 92.3893 419.25 94.1289C420.115 95.8581 421.365 97.181 423 98.0977C424.646 99.0143 426.599 99.4727 428.859 99.4727C431.099 99.4727 433.042 99.0091 434.688 98.082C436.333 97.1549 437.594 95.8268 438.469 94.0977ZM434.688 81.5977C436.062 83.1602 436.75 85.3112 436.75 88.0508C436.75 90.9154 436.068 93.1341 434.703 94.707C433.349 96.2695 431.401 97.0508 428.859 97.0508C426.391 97.0508 424.458 96.2435 423.062 94.6289C421.677 93.0039 420.984 90.8112 420.984 88.0508C420.984 85.2695 421.672 83.1081 423.047 81.5664C424.422 80.0247 426.37 79.2539 428.891 79.2539C431.391 79.2539 433.323 80.0352 434.688 81.5977ZM458.953 88.7383C460.318 87.5091 461 85.8529 461 83.7695C461 81.6654 460.323 80.0352 458.969 78.8789C457.615 77.7227 455.703 77.1445 453.234 77.1445H443.969V99.1602H446.953V90.582H453.422C455.755 90.582 457.599 89.9674 458.953 88.7383ZM452.875 79.5352C456.292 79.5352 458 80.957 458 83.8008C458 86.7487 456.333 88.2227 453 88.2227H446.953V79.5352H452.875ZM484 94.0977C484.885 92.3685 485.328 90.3529 485.328 88.0508C485.328 85.7383 484.891 83.7331 484.016 82.0352C483.151 80.3372 481.896 79.0456 480.25 78.1602C478.604 77.2643 476.661 76.8164 474.422 76.8164C470.984 76.8164 468.302 77.8112 466.375 79.8008C464.448 81.7799 463.484 84.5299 463.484 88.0508C463.484 90.3633 463.917 92.3893 464.781 94.1289C465.646 95.8581 466.896 97.181 468.531 98.0977C470.177 99.0143 472.13 99.4727 474.391 99.4727C476.63 99.4727 478.573 99.0091 480.219 98.082C481.865 97.1549 483.125 95.8268 484 94.0977ZM480.219 81.5977C481.594 83.1602 482.281 85.3112 482.281 88.0508C482.281 90.9154 481.599 93.1341 480.234 94.707C478.88 96.2695 476.932 97.0508 474.391 97.0508C471.922 97.0508 469.99 96.2435 468.594 94.6289C467.208 93.0039 466.516 90.8112 466.516 88.0508C466.516 85.2695 467.203 83.1081 468.578 81.5664C469.953 80.0247 471.901 79.2539 474.422 79.2539C476.922 79.2539 478.854 80.0352 480.219 81.5977ZM513.297 97.5352C514.724 96.4414 515.438 94.9154 515.438 92.957C515.438 91.4883 514.964 90.2747 514.016 89.3164C513.068 88.3477 511.719 87.7591 509.969 87.5508C511.302 87.2487 512.333 86.6549 513.062 85.7695C513.792 84.8841 514.156 83.7904 514.156 82.4883C514.156 78.9258 511.573 77.1445 506.406 77.1445H498.406V99.1602H507.344C509.885 99.1602 511.87 98.6185 513.297 97.5352ZM509.938 80.3008C510.75 80.8112 511.156 81.6602 511.156 82.8477C511.156 84.0872 510.76 85.0091 509.969 85.6133C509.188 86.207 508 86.5039 506.406 86.5039H501.391V79.5352H506.406C507.948 79.5352 509.125 79.7904 509.938 80.3008ZM506.953 88.832C510.599 88.832 512.422 90.1289 512.422 92.7227C512.422 94.0664 512.005 95.0768 511.172 95.7539C510.339 96.431 509.01 96.7695 507.188 96.7695H501.391V88.832H506.953ZM531.781 92.7227L534.297 99.1602H537.344L528.5 77.1445H525.109L516.125 99.1602H519.219L521.75 92.7227H531.781ZM526.625 79.832L526.766 79.3945L527.188 80.6914C527.479 81.5977 527.771 82.4102 528.062 83.1289L530.891 90.3945H522.656L525.469 83.1602C525.979 81.806 526.365 80.6966 526.625 79.832ZM558.75 84.4727V99.1602H561.438V77.1445H557.609L551.859 92.4102C551.766 92.6289 551.583 93.1654 551.312 94.0195C551.052 94.8633 550.88 95.4935 550.797 95.9102C550.734 95.5977 550.604 95.0924 550.406 94.3945C550.219 93.6862 550.021 93.0247 549.812 92.4102L543.953 77.1445H540.031V99.1602H542.688V84.4727L542.625 81.5195L542.578 79.7852L543.094 81.5039L543.969 84.1602L549.734 99.1602H551.828L557.516 84.1602C557.922 83.1081 558.38 81.6497 558.891 79.7852C558.797 81.2852 558.75 82.8477 558.75 84.4727ZM590.453 79.6602V99.1602H593.438V77.1445H575.562V99.1602H578.547V79.6602H590.453ZM618 94.0977C618.885 92.3685 619.328 90.3529 619.328 88.0508C619.328 85.7383 618.891 83.7331 618.016 82.0352C617.151 80.3372 615.896 79.0456 614.25 78.1602C612.604 77.2643 610.661 76.8164 608.422 76.8164C604.984 76.8164 602.302 77.8112 600.375 79.8008C598.448 81.7799 597.484 84.5299 597.484 88.0508C597.484 90.3633 597.917 92.3893 598.781 94.1289C599.646 95.8581 600.896 97.181 602.531 98.0977C604.177 99.0143 606.13 99.4727 608.391 99.4727C610.63 99.4727 612.573 99.0091 614.219 98.082C615.865 97.1549 617.125 95.8268 618 94.0977ZM614.219 81.5977C615.594 83.1602 616.281 85.3112 616.281 88.0508C616.281 90.9154 615.599 93.1341 614.234 94.707C612.88 96.2695 610.932 97.0508 608.391 97.0508C605.922 97.0508 603.99 96.2435 602.594 94.6289C601.208 93.0039 600.516 90.8112 600.516 88.0508C600.516 85.2695 601.203 83.1081 602.578 81.5664C603.953 80.0247 605.901 79.2539 608.422 79.2539C610.922 79.2539 612.854 80.0352 614.219 81.5977ZM625.328 98.2227C626.703 99.056 628.453 99.4727 630.578 99.4727C633.057 99.4727 635.016 98.8737 636.453 97.6758C637.901 96.4674 638.625 94.8477 638.625 92.8164C638.625 91.4414 638.182 90.3008 637.297 89.3945C636.411 88.4779 635.177 87.8997 633.594 87.6602C635.01 87.3268 636.094 86.7279 636.844 85.8633C637.594 84.9987 637.969 83.9049 637.969 82.582C637.969 80.8216 637.312 79.4258 636 78.3945C634.688 77.3529 632.927 76.832 630.719 76.832C628.635 76.832 626.906 77.2695 625.531 78.1445C624.156 79.0195 623.104 80.3581 622.375 82.1602L625.156 83.1133C625.688 81.7591 626.401 80.7799 627.297 80.1758C628.193 79.5612 629.297 79.2539 630.609 79.2539C632.016 79.2539 633.094 79.5768 633.844 80.2227C634.604 80.8581 634.984 81.7331 634.984 82.8477C634.984 84.1289 634.531 85.082 633.625 85.707C632.729 86.3216 631.339 86.6289 629.453 86.6289H628.344V88.9414H629.453C631.557 88.9414 633.109 89.2487 634.109 89.8633C635.109 90.4779 635.609 91.4779 635.609 92.8633C635.609 94.1966 635.151 95.2331 634.234 95.9727C633.318 96.7122 632.062 97.082 630.469 97.082C627.729 97.082 625.74 95.6654 624.5 92.832L621.922 94.0352C622.818 95.9831 623.953 97.3789 625.328 98.2227ZM657.734 97.5352C659.161 96.4414 659.875 94.9154 659.875 92.957C659.875 91.4883 659.401 90.2747 658.453 89.3164C657.505 88.3477 656.156 87.7591 654.406 87.5508C655.74 87.2487 656.771 86.6549 657.5 85.7695C658.229 84.8841 658.594 83.7904 658.594 82.4883C658.594 78.9258 656.01 77.1445 650.844 77.1445H642.844V99.1602H651.781C654.323 99.1602 656.307 98.6185 657.734 97.5352ZM654.375 80.3008C655.188 80.8112 655.594 81.6602 655.594 82.8477C655.594 84.0872 655.198 85.0091 654.406 85.6133C653.625 86.207 652.438 86.5039 650.844 86.5039H645.828V79.5352H650.844C652.385 79.5352 653.562 79.7904 654.375 80.3008ZM651.391 88.832C655.036 88.832 656.859 90.1289 656.859 92.7227C656.859 94.0664 656.443 95.0768 655.609 95.7539C654.776 96.431 653.448 96.7695 651.625 96.7695H645.828V88.832H651.391ZM682.531 94.0977C683.417 92.3685 683.859 90.3529 683.859 88.0508C683.859 85.7383 683.422 83.7331 682.547 82.0352C681.682 80.3372 680.427 79.0456 678.781 78.1602C677.135 77.2643 675.193 76.8164 672.953 76.8164C669.516 76.8164 666.833 77.8112 664.906 79.8008C662.979 81.7799 662.016 84.5299 662.016 88.0508C662.016 90.3633 662.448 92.3893 663.312 94.1289C664.177 95.8581 665.427 97.181 667.062 98.0977C668.708 99.0143 670.661 99.4727 672.922 99.4727C675.161 99.4727 677.104 99.0091 678.75 98.082C680.396 97.1549 681.656 95.8268 682.531 94.0977ZM678.75 81.5977C680.125 83.1602 680.812 85.3112 680.812 88.0508C680.812 90.9154 680.13 93.1341 678.766 94.707C677.411 96.2695 675.464 97.0508 672.922 97.0508C670.453 97.0508 668.521 96.2435 667.125 94.6289C665.74 93.0039 665.047 90.8112 665.047 88.0508C665.047 85.2695 665.734 83.1081 667.109 81.5664C668.484 80.0247 670.432 79.2539 672.953 79.2539C675.453 79.2539 677.385 80.0352 678.75 81.5977ZM702.922 88.957V99.1602H705.906V77.1445H702.922V86.457H691.016V77.1445H688.031V99.1602H691.016V88.957H702.922ZM716.281 89.6758L710.031 99.1602H713.469L719.188 90.0195H726.047V99.1602H729.031V77.1445H718.672C716.182 77.1445 714.266 77.7018 712.922 78.8164C711.578 79.9206 710.906 81.4622 710.906 83.4414C710.906 85.0768 711.38 86.4518 712.328 87.5664C713.286 88.681 714.604 89.3841 716.281 89.6758ZM715.188 86.5664C714.333 85.8268 713.906 84.7956 713.906 83.4727C713.906 82.1914 714.339 81.2174 715.203 80.5508C716.078 79.8737 717.333 79.5352 718.969 79.5352H726.047V87.6602H718.844C717.271 87.6602 716.052 87.2956 715.188 86.5664ZM742.906 99.1602V79.582H750.469V77.1445H732.375V79.582H739.938V99.1602H742.906Z" fill="white"/>
</svg>
