<svg width="241" height="204" viewBox="0 0 241 204" fill="none" xmlns="http://www.w3.org/2000/svg">
<path d="M21.6562 125.719C21.6562 127.719 20.9062 129.266 19.4062 130.359C17.9062 131.453 15.8229 132 13.1562 132H2.14062V109.984H12.2188C14.9062 109.984 16.9375 110.453 18.3125 111.391C19.6979 112.318 20.3906 113.693 20.3906 115.516C20.3906 116.766 20.0417 117.823 19.3438 118.688C18.6562 119.542 17.6042 120.12 16.1875 120.422C17.9688 120.63 19.3229 121.193 20.25 122.109C21.1875 123.016 21.6562 124.219 21.6562 125.719ZM15.75 116.141C15.75 115.151 15.4323 114.448 14.7969 114.031C14.1719 113.615 13.2396 113.406 12 113.406H6.75V118.859H12.0312C13.3333 118.859 14.276 118.635 14.8594 118.188C15.4531 117.729 15.75 117.047 15.75 116.141ZM17.0312 125.359C17.0312 123.297 15.5521 122.266 12.5938 122.266H6.75V128.578H12.7656C14.2448 128.578 15.3229 128.312 16 127.781C16.6875 127.24 17.0312 126.432 17.0312 125.359ZM39.4688 132V122.562H29.875V132H25.2656V109.984H29.875V118.75H39.4688V109.984H44.0781V132H39.4688ZM48.3906 132V109.984H65.7031V113.547H53V119.078H64.75V122.641H53V128.438H66.3438V132H48.3906ZM95.7344 138.375V132H78.6406V109.984H83.25V128.188H92.1406V109.984H96.5938V128.188H99.6406V138.375H95.7344ZM121.531 125.719C121.531 127.719 120.781 129.266 119.281 130.359C117.781 131.453 115.698 132 113.031 132H102.016V109.984H112.094C114.781 109.984 116.812 110.453 118.188 111.391C119.573 112.318 120.266 113.693 120.266 115.516C120.266 116.766 119.917 117.823 119.219 118.688C118.531 119.542 117.479 120.12 116.062 120.422C117.844 120.63 119.198 121.193 120.125 122.109C121.062 123.016 121.531 124.219 121.531 125.719ZM115.625 116.141C115.625 115.151 115.307 114.448 114.672 114.031C114.047 113.615 113.115 113.406 111.875 113.406H106.625V118.859H111.906C113.208 118.859 114.151 118.635 114.734 118.188C115.328 117.729 115.625 117.047 115.625 116.141ZM116.906 125.359C116.906 123.297 115.427 122.266 112.469 122.266H106.625V128.578H112.641C114.12 128.578 115.198 128.312 115.875 127.781C116.562 127.24 116.906 126.432 116.906 125.359ZM125.141 132V109.984H142.453V113.547H129.75V119.078H141.5V122.641H129.75V128.438H143.094V132H125.141ZM156.422 113.547V132H151.812V113.547H144.703V109.984H163.547V113.547H156.422ZM179.578 132L177.625 126.375H169.234L167.281 132H162.672L170.703 109.984H176.141L184.141 132H179.578ZM173.422 113.375L173.328 113.719C173.224 114.094 173.099 114.521 172.953 115C172.807 115.479 171.911 118.115 170.266 122.906H176.594L174.422 116.578L173.75 114.453L173.422 113.375ZM2.14062 146.984H6.75V156.344C7.29167 156.344 7.86979 156.026 8.48438 155.391C9.10938 154.745 9.91667 153.63 10.9062 152.047L14.125 146.984H18.8125L14.6719 153.312C13.3802 155.281 12.4896 156.448 12 156.812L19.5781 169H14.5625L8.71875 159C8.51042 159.135 8.20312 159.26 7.79688 159.375C7.39062 159.49 7.03646 159.547 6.73438 159.547V169H2.14062V146.984ZM43.0781 157.891C43.0781 160.182 42.625 162.198 41.7188 163.938C40.8125 165.677 39.5156 167.01 37.8281 167.938C36.1406 168.854 34.1719 169.312 31.9219 169.312C28.4635 169.312 25.75 168.297 23.7812 166.266C21.8229 164.224 20.8438 161.432 20.8438 157.891C20.8438 154.359 21.8229 151.604 23.7812 149.625C25.7396 147.646 28.4635 146.656 31.9531 146.656C35.4427 146.656 38.1667 147.656 40.125 149.656C42.0938 151.656 43.0781 154.401 43.0781 157.891ZM38.375 157.891C38.375 155.516 37.8125 153.656 36.6875 152.312C35.5625 150.958 33.9844 150.281 31.9531 150.281C29.8906 150.281 28.2969 150.953 27.1719 152.297C26.0469 153.63 25.4844 155.495 25.4844 157.891C25.4844 160.307 26.0573 162.214 27.2031 163.609C28.3594 164.995 29.9323 165.688 31.9219 165.688C33.9844 165.688 35.5729 165.01 36.6875 163.656C37.8125 162.302 38.375 160.38 38.375 157.891ZM56.2812 169V159.438C55.9479 159.438 55.5781 159.396 55.1719 159.312C54.776 159.229 54.4844 159.125 54.2969 159L48.8438 169H43.9062L51.0156 156.812C50.5469 156.458 49.7135 155.302 48.5156 153.344L44.5938 146.984H49.2812L52.375 152.047C53.5208 153.901 54.3333 155.083 54.8125 155.594C55.2917 156.094 55.776 156.344 56.2656 156.344V146.984H60.7031V156.344C61.1927 156.344 61.6771 156.099 62.1562 155.609C62.6354 155.109 63.4531 153.922 64.6094 152.047L67.7031 146.984H72.3906L68.4688 153.344C67.2708 155.302 66.4375 156.458 65.9688 156.812L73.0781 169H68.1406L62.6875 159C62.1042 159.292 61.4427 159.438 60.7031 159.438V169H56.2812ZM75.0625 169V146.984H79.1562V159.781C79.1562 160.896 79.1146 162.328 79.0312 164.078L88.6094 146.984H93.7969V169H89.7031V156.016C89.7031 155.203 89.7448 153.88 89.8281 152.047L80.3125 169H75.0625Z" fill="white"/>
<path d="M3.75 193.219L2.76562 198H1.47656L2.46094 193.219H0.105469V191.953H2.74219L3.65625 187.629H0.703125V186.363H3.91406L4.95703 181.582H6.24609L5.21484 186.363H9.46875L10.5 181.582H11.7891L10.7578 186.363H13.2305V187.629H10.5L9.58594 191.953H12.6328V193.219H9.31641L8.28516 198H6.99609L8.00391 193.219H3.75ZM4.04297 191.953H8.28516L9.19922 187.629H4.98047L4.04297 191.953ZM17.3086 196.453C17.0195 197.062 16.6602 197.512 16.2305 197.801C15.8086 198.09 15.2617 198.234 14.5898 198.234C14.3945 198.234 14.2031 198.223 14.0156 198.199C13.8359 198.176 13.6602 198.137 13.4883 198.082V196.57C13.6914 196.641 13.957 196.676 14.2852 196.676C14.4336 196.676 14.6016 196.629 14.7891 196.535C14.9844 196.434 15.1914 196.184 15.4102 195.785C15.6289 195.379 15.8398 194.719 16.043 193.805C16.1055 193.516 16.168 193.184 16.2305 192.809C16.3008 192.434 16.3789 191.941 16.4648 191.332C16.5508 190.723 16.6602 189.938 16.793 188.977C16.9258 188.008 17.0898 186.789 17.2852 185.32H25.6992V198H23.5781V186.855H19.1836C18.957 188.559 18.7539 189.984 18.5742 191.133C18.3945 192.281 18.2422 193.152 18.1172 193.746C17.875 194.941 17.6055 195.844 17.3086 196.453ZM30.6094 192.105C30.6094 193.559 30.9102 194.68 31.5117 195.469C32.1133 196.258 32.9922 196.652 34.1484 196.652C35.0625 196.652 35.793 196.469 36.3398 196.102C36.8945 195.734 37.2695 195.27 37.4648 194.707L39.3164 195.234C38.5586 197.234 36.8359 198.234 34.1484 198.234C32.2734 198.234 30.8438 197.676 29.8594 196.559C28.8828 195.441 28.3945 193.781 28.3945 191.578C28.3945 189.484 28.8828 187.879 29.8594 186.762C30.8438 185.645 32.2461 185.086 34.0664 185.086C35.9336 185.086 37.332 185.648 38.2617 186.773C39.1914 187.898 39.6562 189.582 39.6562 191.824V192.105H30.6094ZM37.4766 190.488C37.3594 189.152 37.0195 188.18 36.457 187.57C35.8945 186.953 35.0859 186.645 34.0312 186.645C33.0078 186.645 32.1953 186.988 31.5938 187.676C31 188.355 30.6797 189.293 30.6328 190.488H37.4766ZM44.4609 192.41V198H42.3516V185.32H44.4609V190.875C44.6953 190.875 44.9062 190.844 45.0938 190.781C45.2812 190.711 45.4766 190.578 45.6797 190.383C45.7812 190.281 45.8906 190.164 46.0078 190.031C46.125 189.891 46.2461 189.73 46.3711 189.551C46.5039 189.371 46.793 188.93 47.2383 188.227C47.6836 187.516 48.2852 186.547 49.043 185.32H51.2461L48.7148 189.129C47.9961 190.191 47.4961 190.836 47.2148 191.062L51.3516 198H49.0078L45.75 192.176C45.6016 192.238 45.3984 192.293 45.1406 192.34C44.8906 192.387 44.6641 192.41 44.4609 192.41ZM52.8984 198V185.32H55.0078V196.465H60.5977V185.32H62.707V196.465H64.4297V202.781H62.5195V198H52.8984ZM74.8359 187.77L68.9062 198H66.6562V185.32H68.6953V192.258C68.6953 192.586 68.6875 192.934 68.6719 193.301C68.6562 193.668 68.6406 194.039 68.625 194.414C68.6094 194.781 68.5938 195.145 68.5781 195.504L74.4258 185.32H76.7344V198H74.7188V190.266C74.7188 190.078 74.7227 189.82 74.7305 189.492C74.7461 189.156 74.7617 188.824 74.7773 188.496C74.8008 188.168 74.8203 187.926 74.8359 187.77ZM84.668 192.633L80.9766 198H78.5977L82.6289 192.48C81.6602 192.277 80.9297 191.871 80.4375 191.262C79.9531 190.652 79.7109 189.84 79.7109 188.824C79.7109 187.66 80.1328 186.785 80.9766 186.199C81.8203 185.613 83.0508 185.32 84.668 185.32H89.7305V198H87.6211V192.633H84.668ZM84.6562 191.168H87.6211V186.809H84.8789C83.8633 186.809 83.1211 186.988 82.6523 187.348C82.1836 187.707 81.9492 188.25 81.9492 188.977C81.9492 189.711 82.1562 190.262 82.5703 190.629C82.9922 190.988 83.6875 191.168 84.6562 191.168Z" fill="white"/>
<path d="M49.4531 54.9531C49.4531 66.1094 47.5312 74.5625 43.6875 80.3125C39.875 86.0625 34.1406 88.9375 26.4844 88.9375C18.9219 88.9375 13.25 86.1094 9.46875 80.4531C5.6875 74.7656 3.79688 66.2656 3.79688 54.9531C3.79688 43.3594 5.59375 34.7969 9.1875 29.2656C12.8125 23.7344 18.7031 20.9688 26.8594 20.9688C34.6719 20.9688 40.3906 23.7969 44.0156 29.4531C47.6406 35.1094 49.4531 43.6094 49.4531 54.9531ZM36.2344 54.9531C36.2344 49.0156 35.9688 44.3281 35.4375 40.8906C34.9062 37.4219 33.9531 34.9531 32.5781 33.4844C31.2031 32.0156 29.2656 31.2812 26.7656 31.2812C24.1094 31.2812 22.0625 32.0312 20.625 33.5312C19.2188 35 18.25 37.4688 17.7188 40.9375C17.2188 44.375 16.9688 49.0469 16.9688 54.9531C16.9688 60.8594 17.2344 65.5469 17.7656 69.0156C18.3281 72.4531 19.2969 74.9062 20.6719 76.375C22.0781 77.8438 24.0469 78.5781 26.5781 78.5781C30.3281 78.5781 32.875 76.7656 34.2188 73.1406C35.5625 69.5156 36.2344 63.4531 36.2344 54.9531ZM104.156 66.0156C104.156 73.0156 101.969 78.5938 97.5938 82.75C93.25 86.875 87.2812 88.9375 79.6875 88.9375C73.0625 88.9375 67.75 87.4531 63.75 84.4844C59.7812 81.4844 57.3281 77.1562 56.3906 71.5L69.5625 70.4219C70.25 73.2344 71.4688 75.2812 73.2188 76.5625C74.9688 77.8438 77.1719 78.4844 79.8281 78.4844C83.1094 78.4844 85.7188 77.4375 87.6562 75.3438C89.625 73.25 90.6094 70.2344 90.6094 66.2969C90.6094 62.8281 89.6875 60.0625 87.8438 58C86 55.9062 83.4219 54.8594 80.1094 54.8594C78.2969 54.8594 76.6406 55.2188 75.1406 55.9375C73.6406 56.625 72.3125 57.6875 71.1562 59.125H58.3125L60.6094 21.9531H100.312V31.75H72.5625L71.4844 48.4375C74.6719 45.625 78.6562 44.2188 83.4375 44.2188C87.625 44.2188 91.2656 45.1094 94.3594 46.8906C97.4844 48.6406 99.8906 51.1406 101.578 54.3906C103.297 57.6406 104.156 61.5156 104.156 66.0156ZM132.609 18.4375L119.203 89.9219H107.812L121.453 18.4375H132.609ZM183.047 54.9531C183.047 66.1094 181.125 74.5625 177.281 80.3125C173.469 86.0625 167.734 88.9375 160.078 88.9375C152.516 88.9375 146.844 86.1094 143.062 80.4531C139.281 74.7656 137.391 66.2656 137.391 54.9531C137.391 43.3594 139.188 34.7969 142.781 29.2656C146.406 23.7344 152.297 20.9688 160.453 20.9688C168.266 20.9688 173.984 23.7969 177.609 29.4531C181.234 35.1094 183.047 43.6094 183.047 54.9531ZM169.828 54.9531C169.828 49.0156 169.562 44.3281 169.031 40.8906C168.5 37.4219 167.547 34.9531 166.172 33.4844C164.797 32.0156 162.859 31.2812 160.359 31.2812C157.703 31.2812 155.656 32.0312 154.219 33.5312C152.812 35 151.844 37.4688 151.312 40.9375C150.812 44.375 150.562 49.0469 150.562 54.9531C150.562 60.8594 150.828 65.5469 151.359 69.0156C151.922 72.4531 152.891 74.9062 154.266 76.375C155.672 77.8438 157.641 78.5781 160.172 78.5781C163.922 78.5781 166.469 76.7656 167.812 73.1406C169.156 69.5156 169.828 63.4531 169.828 54.9531ZM236.203 32.4062C233.234 37.0938 230.422 41.6406 227.766 46.0469C225.141 50.4219 222.844 54.8438 220.875 59.3125C218.906 63.75 217.344 68.3281 216.188 73.0469C215.062 77.7656 214.5 82.75 214.5 88H200.766C200.766 82.9688 201.312 78.2031 202.406 73.7031C203.5 69.1719 205.234 64.4062 207.609 59.4062C209.172 56.1562 211.234 52.4375 213.797 48.25C216.359 44.0625 219.75 38.9062 223.969 32.7812H191.156V21.9531H236.203V32.4062Z" fill="white"/>
</svg>
