<svg width="505" height="442" viewBox="0 0 505 442" fill="none" xmlns="http://www.w3.org/2000/svg">
<path d="M1 106.287V148.114L42.8393 127.195L1 106.287Z" stroke="white" stroke-opacity="0.54" stroke-miterlimit="10"/>
<path d="M1 64.4482V106.288L42.8393 85.3679L1 64.4482Z" stroke="white" stroke-opacity="0.54" stroke-miterlimit="10"/>
<path d="M1 22.6221V64.4493L42.8393 43.5296L1 22.6221Z" stroke="white" stroke-opacity="0.54" stroke-miterlimit="10"/>
<path d="M1 231.782V273.609L42.8393 252.702L1 231.782Z" stroke="white" stroke-opacity="0.54" stroke-miterlimit="10"/>
<path d="M1 188.503V230.33L42.8393 209.423L1 188.503Z" stroke="white" stroke-opacity="0.54" stroke-miterlimit="10"/>
<path d="M1 148.18V190.007L42.8393 169.099L1 148.18Z" stroke="white" stroke-opacity="0.54" stroke-miterlimit="10"/>
<path d="M42.8398 210.861V252.701L84.6671 231.781L42.8398 210.861Z" stroke="white" stroke-opacity="0.54" stroke-miterlimit="10"/>
<path d="M42.8398 167.582V209.421L84.6671 188.502L42.8398 167.582Z" stroke="white" stroke-opacity="0.54" stroke-miterlimit="10"/>
<path d="M42.8398 127.259V169.098L84.6671 148.178L42.8398 127.259Z" stroke="white" stroke-opacity="0.54" stroke-miterlimit="10"/>
<path d="M84.668 189.942V231.782L126.495 210.862L84.668 189.942Z" stroke="white" stroke-opacity="0.54" stroke-miterlimit="10"/>
<path d="M84.668 146.662V188.501L126.495 167.582L84.668 146.662Z" stroke="white" stroke-opacity="0.54" stroke-miterlimit="10"/>
<path d="M84.668 106.339V148.178L126.495 127.259L84.668 106.339Z" stroke="white" stroke-opacity="0.54" stroke-miterlimit="10"/>
<path d="M84.668 64.4482V106.288L126.495 85.3679L84.668 64.4482Z" stroke="white" stroke-opacity="0.54" stroke-miterlimit="10"/>
<path d="M42.8398 85.3691V127.196L84.6671 106.289L42.8398 85.3691Z" stroke="white" stroke-opacity="0.54" stroke-miterlimit="10"/>
<path d="M42.8398 43.5303V85.3696L84.6671 64.4499L42.8398 43.5303Z" stroke="white" stroke-opacity="0.54" stroke-miterlimit="10"/>
<path d="M84.668 22.6221V64.4493L126.495 43.5296L84.668 22.6221Z" stroke="white" stroke-opacity="0.54" stroke-miterlimit="10"/>
<path d="M42.8398 1.70312V43.5304L84.6671 22.6228L42.8398 1.70312Z" stroke="white" stroke-opacity="0.54" stroke-miterlimit="10"/>
<path d="M84.668 231.782V273.609L126.495 252.702L84.668 231.782Z" stroke="white" stroke-opacity="0.54" stroke-miterlimit="10"/>
<path d="M126.494 210.861V252.701L168.333 231.781L126.494 210.861Z" stroke="white" stroke-opacity="0.54" stroke-miterlimit="10"/>
<path d="M168.334 189.942V231.782L210.161 210.862L168.334 189.942Z" stroke="white" stroke-opacity="0.54" stroke-miterlimit="10"/>
<path d="M168.334 148.115V189.942L210.161 169.035L168.334 148.115Z" stroke="white" stroke-opacity="0.54" stroke-miterlimit="10"/>
<path d="M126.494 169.036V210.863L168.333 189.944L126.494 169.036Z" stroke="white" stroke-opacity="0.54" stroke-miterlimit="10"/>
<path d="M126.494 127.197V169.037L168.333 148.117L126.494 127.197Z" stroke="white" stroke-opacity="0.54" stroke-miterlimit="10"/>
<path d="M168.334 106.287V148.114L210.161 127.195L168.334 106.287Z" stroke="white" stroke-opacity="0.54" stroke-miterlimit="10"/>
<path d="M168.334 64.4482V106.288L210.161 85.3679L168.334 64.4482Z" stroke="white" stroke-opacity="0.54" stroke-miterlimit="10"/>
<path d="M126.494 85.3691V127.196L168.333 106.289L126.494 85.3691Z" stroke="white" stroke-opacity="0.54" stroke-miterlimit="10"/>
<path d="M126.494 43.5303V85.3696L168.333 64.4499L126.494 43.5303Z" stroke="white" stroke-opacity="0.54" stroke-miterlimit="10"/>
<path d="M168.334 22.6221V64.4493L210.161 43.5296L168.334 22.6221Z" stroke="white" stroke-opacity="0.54" stroke-miterlimit="10"/>
<path d="M126.494 1.70312V43.5304L168.333 22.6228L126.494 1.70312Z" stroke="white" stroke-opacity="0.54" stroke-miterlimit="10"/>
<path d="M168.334 231.782V273.609L210.161 252.702L168.334 231.782Z" stroke="white" stroke-opacity="0.54" stroke-miterlimit="10"/>
<path d="M210.162 210.861V252.701L252.001 231.781L210.162 210.861Z" stroke="white" stroke-opacity="0.54" stroke-miterlimit="10"/>
<path d="M252 189.942V231.782L293.827 210.862L252 189.942Z" stroke="white" stroke-opacity="0.54" stroke-miterlimit="10"/>
<path d="M252 148.115V189.942L293.827 169.035L252 148.115Z" stroke="white" stroke-opacity="0.54" stroke-miterlimit="10"/>
<path d="M210.162 169.036V210.863L252.001 189.944L210.162 169.036Z" stroke="white" stroke-opacity="0.54" stroke-miterlimit="10"/>
<path d="M210.162 127.197V169.037L252.001 148.117L210.162 127.197Z" stroke="white" stroke-opacity="0.54" stroke-miterlimit="10"/>
<path d="M252 106.287V148.114L293.827 127.195L252 106.287Z" stroke="white" stroke-opacity="0.54" stroke-miterlimit="10"/>
<path d="M252 64.4482V106.288L293.827 85.3679L252 64.4482Z" stroke="white" stroke-opacity="0.54" stroke-miterlimit="10"/>
<path d="M210.162 85.3691V127.196L252.001 106.289L210.162 85.3691Z" stroke="white" stroke-opacity="0.54" stroke-miterlimit="10"/>
<path d="M210.162 43.5303V85.3696L252.001 64.4499L210.162 43.5303Z" stroke="white" stroke-opacity="0.54" stroke-miterlimit="10"/>
<path d="M252 22.6221V64.4493L293.827 43.5296L252 22.6221Z" stroke="white" stroke-opacity="0.54" stroke-miterlimit="10"/>
<path d="M210.162 1.70312V43.5304L252.001 22.6228L210.162 1.70312Z" stroke="white" stroke-opacity="0.54" stroke-miterlimit="10"/>
<path d="M252 231.782V273.609L293.827 252.702L252 231.782Z" stroke="white" stroke-opacity="0.54" stroke-miterlimit="10"/>
<path d="M293.828 210.861V252.701L335.667 231.781L293.828 210.861Z" stroke="white" stroke-opacity="0.54" stroke-miterlimit="10"/>
<path d="M335.666 189.942V231.782L377.493 210.862L335.666 189.942Z" stroke="white" stroke-opacity="0.54" stroke-miterlimit="10"/>
<path d="M335.666 148.115V189.942L377.493 169.035L335.666 148.115Z" stroke="white" stroke-opacity="0.54" stroke-miterlimit="10"/>
<path d="M293.828 169.036V210.863L335.667 189.944L293.828 169.036Z" stroke="white" stroke-opacity="0.54" stroke-miterlimit="10"/>
<path d="M293.828 127.197V169.037L335.667 148.117L293.828 127.197Z" stroke="white" stroke-opacity="0.54" stroke-miterlimit="10"/>
<path d="M335.666 106.287V148.114L377.493 127.195L335.666 106.287Z" stroke="white" stroke-opacity="0.54" stroke-miterlimit="10"/>
<path d="M335.666 64.4482V106.288L377.493 85.3679L335.666 64.4482Z" stroke="white" stroke-opacity="0.54" stroke-miterlimit="10"/>
<path d="M293.828 85.3691V127.196L335.667 106.289L293.828 85.3691Z" stroke="white" stroke-opacity="0.54" stroke-miterlimit="10"/>
<path d="M293.828 43.5303V85.3696L335.667 64.4499L293.828 43.5303Z" stroke="white" stroke-opacity="0.54" stroke-miterlimit="10"/>
<path d="M335.666 22.6221V64.4493L377.493 43.5296L335.666 22.6221Z" stroke="white" stroke-opacity="0.54" stroke-miterlimit="10"/>
<path d="M293.828 1.70312V43.5304L335.667 22.6228L293.828 1.70312Z" stroke="white" stroke-opacity="0.54" stroke-miterlimit="10"/>
<path d="M335.666 231.782V273.609L377.493 252.702L335.666 231.782Z" stroke="white" stroke-opacity="0.54" stroke-miterlimit="10"/>
<path d="M377.494 210.861V252.701L419.333 231.781L377.494 210.861Z" stroke="white" stroke-opacity="0.54" stroke-miterlimit="10"/>
<path d="M377.494 169.036V210.863L419.333 189.944L377.494 169.036Z" stroke="white" stroke-opacity="0.54" stroke-miterlimit="10"/>
<path d="M377.494 127.197V169.037L419.333 148.117L377.494 127.197Z" stroke="white" stroke-opacity="0.54" stroke-miterlimit="10"/>
<path d="M377.494 85.3691V127.196L419.333 106.289L377.494 85.3691Z" stroke="white" stroke-opacity="0.54" stroke-miterlimit="10"/>
<path d="M377.494 43.5303V85.3696L419.333 64.4499L377.494 43.5303Z" stroke="white" stroke-opacity="0.54" stroke-miterlimit="10"/>
<path d="M377.494 1.70312V43.5304L419.333 22.6228L377.494 1.70312Z" stroke="white" stroke-opacity="0.54" stroke-miterlimit="10"/>
<path d="M419.334 189.942V231.782L461.161 210.862L419.334 189.942Z" stroke="white" stroke-opacity="0.54" stroke-miterlimit="10"/>
<path d="M419.334 148.115V189.942L461.161 169.035L419.334 148.115Z" stroke="white" stroke-opacity="0.54" stroke-miterlimit="10"/>
<path d="M419.334 106.287V148.114L461.161 127.195L419.334 106.287Z" stroke="white" stroke-opacity="0.54" stroke-miterlimit="10"/>
<path d="M419.334 64.4482V106.288L461.161 85.3679L419.334 64.4482Z" stroke="white" stroke-opacity="0.54" stroke-miterlimit="10"/>
<path d="M419.334 22.6221V64.4493L461.161 43.5296L419.334 22.6221Z" stroke="white" stroke-opacity="0.54" stroke-miterlimit="10"/>
<path d="M419.334 231.782V273.609L461.161 252.702L419.334 231.782Z" stroke="white" stroke-opacity="0.54" stroke-miterlimit="10"/>
<path d="M461.16 210.861V252.701L502.999 231.781L461.16 210.861Z" stroke="white" stroke-opacity="0.54" stroke-miterlimit="10"/>
<path d="M461.16 169.036V210.863L502.999 189.944L461.16 169.036Z" stroke="white" stroke-opacity="0.54" stroke-miterlimit="10"/>
<path d="M461.16 127.197V169.037L502.999 148.117L461.16 127.197Z" stroke="white" stroke-opacity="0.54" stroke-miterlimit="10"/>
<path d="M461.16 85.3691V127.196L502.999 106.289L461.16 85.3691Z" stroke="white" stroke-opacity="0.54" stroke-miterlimit="10"/>
<path d="M461.16 43.5303V85.3696L502.999 64.4499L461.16 43.5303Z" stroke="white" stroke-opacity="0.54" stroke-miterlimit="10"/>
<path d="M461.16 1.70312V43.5304L502.999 22.6228L461.16 1.70312Z" stroke="white" stroke-opacity="0.54" stroke-miterlimit="10"/>
<path d="M1 399.115V440.942L42.8393 420.023L1 399.115Z" stroke="white" stroke-opacity="0.54" stroke-miterlimit="10"/>
<path d="M1 357.276V399.116L42.8393 378.196L1 357.276Z" stroke="white" stroke-opacity="0.54" stroke-miterlimit="10"/>
<path d="M1 315.449V357.276L42.8393 336.357L1 315.449Z" stroke="white" stroke-opacity="0.54" stroke-miterlimit="10"/>
<path d="M1 273.61V315.45L42.8393 294.53L1 273.61Z" stroke="white" stroke-opacity="0.54" stroke-miterlimit="10"/>
<path d="M84.668 399.115V440.942L126.495 420.023L84.668 399.115Z" stroke="white" stroke-opacity="0.54" stroke-miterlimit="10"/>
<path d="M42.8398 378.194V420.022L84.6671 399.114L42.8398 378.194Z" stroke="white" stroke-opacity="0.54" stroke-miterlimit="10"/>
<path d="M84.668 357.276V399.116L126.495 378.196L84.668 357.276Z" stroke="white" stroke-opacity="0.54" stroke-miterlimit="10"/>
<path d="M84.668 315.449V357.276L126.495 336.357L84.668 315.449Z" stroke="white" stroke-opacity="0.54" stroke-miterlimit="10"/>
<path d="M42.8398 336.357V378.197L84.6671 357.277L42.8398 336.357Z" stroke="white" stroke-opacity="0.54" stroke-miterlimit="10"/>
<path d="M42.8398 294.531V336.358L84.6671 315.451L42.8398 294.531Z" stroke="white" stroke-opacity="0.54" stroke-miterlimit="10"/>
<path d="M84.668 273.61V315.45L126.495 294.53L84.668 273.61Z" stroke="white" stroke-opacity="0.54" stroke-miterlimit="10"/>
<path d="M42.8398 252.703V294.53L84.6671 273.611L42.8398 252.703Z" stroke="white" stroke-opacity="0.54" stroke-miterlimit="10"/>
<path d="M168.334 399.115V440.942L210.161 420.023L168.334 399.115Z" stroke="white" stroke-opacity="0.54" stroke-miterlimit="10"/>
<path d="M126.494 378.194V420.022L168.333 399.114L126.494 378.194Z" stroke="white" stroke-opacity="0.54" stroke-miterlimit="10"/>
<path d="M168.334 357.276V399.116L210.161 378.196L168.334 357.276Z" stroke="white" stroke-opacity="0.54" stroke-miterlimit="10"/>
<path d="M168.334 315.449V357.276L210.161 336.357L168.334 315.449Z" stroke="white" stroke-opacity="0.54" stroke-miterlimit="10"/>
<path d="M126.494 336.357V378.197L168.333 357.277L126.494 336.357Z" stroke="white" stroke-opacity="0.54" stroke-miterlimit="10"/>
<path d="M126.494 294.531V336.358L168.333 315.451L126.494 294.531Z" stroke="white" stroke-opacity="0.54" stroke-miterlimit="10"/>
<path d="M168.334 273.61V315.45L210.161 294.53L168.334 273.61Z" stroke="white" stroke-opacity="0.54" stroke-miterlimit="10"/>
<path d="M126.494 252.703V294.53L168.333 273.611L126.494 252.703Z" stroke="white" stroke-opacity="0.54" stroke-miterlimit="10"/>
<path d="M252 399.115V440.942L293.827 420.023L252 399.115Z" stroke="white" stroke-opacity="0.54" stroke-miterlimit="10"/>
<path d="M210.162 378.194V420.022L252.001 399.114L210.162 378.194Z" stroke="white" stroke-opacity="0.54" stroke-miterlimit="10"/>
<path d="M252 357.276V399.116L293.827 378.196L252 357.276Z" stroke="white" stroke-opacity="0.54" stroke-miterlimit="10"/>
<path d="M252 315.449V357.276L293.827 336.357L252 315.449Z" stroke="white" stroke-opacity="0.54" stroke-miterlimit="10"/>
<path d="M210.162 336.357V378.197L252.001 357.277L210.162 336.357Z" stroke="white" stroke-opacity="0.54" stroke-miterlimit="10"/>
<path d="M210.162 294.531V336.358L252.001 315.451L210.162 294.531Z" stroke="white" stroke-opacity="0.54" stroke-miterlimit="10"/>
<path d="M252 273.61V315.45L293.827 294.53L252 273.61Z" stroke="white" stroke-opacity="0.54" stroke-miterlimit="10"/>
<path d="M210.162 252.703V294.53L252.001 273.611L210.162 252.703Z" stroke="white" stroke-opacity="0.54" stroke-miterlimit="10"/>
<path d="M335.666 399.115V440.942L377.493 420.023L335.666 399.115Z" stroke="white" stroke-opacity="0.54" stroke-miterlimit="10"/>
<path d="M293.828 378.194V420.022L335.667 399.114L293.828 378.194Z" stroke="white" stroke-opacity="0.54" stroke-miterlimit="10"/>
<path d="M335.666 357.276V399.116L377.493 378.196L335.666 357.276Z" stroke="white" stroke-opacity="0.54" stroke-miterlimit="10"/>
<path d="M335.666 315.449V357.276L377.493 336.357L335.666 315.449Z" stroke="white" stroke-opacity="0.54" stroke-miterlimit="10"/>
<path d="M293.828 336.357V378.197L335.667 357.277L293.828 336.357Z" stroke="white" stroke-opacity="0.54" stroke-miterlimit="10"/>
<path d="M293.828 294.531V336.358L335.667 315.451L293.828 294.531Z" stroke="white" stroke-opacity="0.54" stroke-miterlimit="10"/>
<path d="M335.666 273.61V315.45L377.493 294.53L335.666 273.61Z" stroke="white" stroke-opacity="0.54" stroke-miterlimit="10"/>
<path d="M293.828 252.703V294.53L335.667 273.611L293.828 252.703Z" stroke="white" stroke-opacity="0.54" stroke-miterlimit="10"/>
<path d="M377.494 378.194V420.022L419.333 399.114L377.494 378.194Z" stroke="white" stroke-opacity="0.54" stroke-miterlimit="10"/>
<path d="M377.494 336.357V378.197L419.333 357.277L377.494 336.357Z" stroke="white" stroke-opacity="0.54" stroke-miterlimit="10"/>
<path d="M377.494 294.531V336.358L419.333 315.451L377.494 294.531Z" stroke="white" stroke-opacity="0.54" stroke-miterlimit="10"/>
<path d="M377.494 252.703V294.53L419.333 273.611L377.494 252.703Z" stroke="white" stroke-opacity="0.54" stroke-miterlimit="10"/>
<path d="M419.334 399.115V440.942L461.161 420.023L419.334 399.115Z" stroke="white" stroke-opacity="0.54" stroke-miterlimit="10"/>
<path d="M419.334 357.276V399.116L461.161 378.196L419.334 357.276Z" stroke="white" stroke-opacity="0.54" stroke-miterlimit="10"/>
<path d="M419.334 315.449V357.276L461.161 336.357L419.334 315.449Z" stroke="white" stroke-opacity="0.54" stroke-miterlimit="10"/>
<path d="M419.334 273.61V315.45L461.161 294.53L419.334 273.61Z" stroke="white" stroke-opacity="0.54" stroke-miterlimit="10"/>
<path d="M461.16 378.194V420.022L502.999 399.114L461.16 378.194Z" stroke="white" stroke-opacity="0.54" stroke-miterlimit="10"/>
<path d="M461.16 336.357V378.197L502.999 357.277L461.16 336.357Z" stroke="white" stroke-opacity="0.54" stroke-miterlimit="10"/>
<path d="M461.16 294.531V336.358L502.999 315.451L461.16 294.531Z" stroke="white" stroke-opacity="0.54" stroke-miterlimit="10"/>
<path d="M461.16 252.703V294.53L502.999 273.611L461.16 252.703Z" stroke="white" stroke-opacity="0.54" stroke-miterlimit="10"/>
<path d="M294.319 84.945V127.441L251.684 148.758L209.676 127.819V85.0413L251.891 63.5586L294.319 84.945Z" fill="white"/>
<path d="M377.096 335.546L420.49 357.295L377.617 378.9L335.873 358.186L293.782 336.95L250.558 316.661L208.876 337.542L167.31 358.325L126.88 378.949L83.4612 357.239L124.764 336.486L166.036 314.493L209.335 294.182V211.354L168.112 232.418L126.88 253.481L82.9082 232.5L126.88 211.354L167.498 190.224L209.335 169.237L251.735 147.414L292.549 167.792L333.844 188.379L377.371 210.231L420.55 231.766L377.872 253.576L334.553 231.782L294.336 211.661L294.65 293.429L335.873 314.493L377.096 335.546Z" fill="white"/>
</svg>
