<svg width="48" height="24" viewBox="0 0 48 24" fill="none" xmlns="http://www.w3.org/2000/svg">
<path d="M48 22.5665C47.6975 23.3593 47.2548 23.6821 46.2686 23.7098C44.1142 23.7709 41.9565 23.748 39.8053 23.8578C37.9358 23.9533 36.4543 23.3296 35.1973 22.2246C34.176 21.3258 33.2391 20.3545 32.2375 19.4385C31.8747 19.1062 31.4594 18.8053 31.0233 18.5484C30.2759 18.11 29.7346 18.1921 29.1253 18.7719C28.4327 19.4299 28.2453 20.2571 28.1303 21.1004C28.0733 21.5188 28.0766 21.9428 28.0448 22.364C27.9823 23.1692 27.5254 23.6467 26.6049 23.7069C25.5945 23.7738 24.5765 23.7585 23.5628 23.7528C22.8461 23.7489 22.1229 23.7432 21.415 23.663C19.0764 23.3975 17.0185 22.5312 15.0405 21.4414C12.5869 20.0899 10.7196 18.2571 9.00569 16.259C5.40148 12.0623 2.62134 7.46342 0.205016 2.68406C-0.271673 1.74042 0.0822826 1.21702 1.27346 1.13011C2.01863 1.07567 2.77147 1.0919 3.52102 1.08713C5.03657 1.07662 6.55211 1.07375 8.06656 1.06898C9.09117 1.06611 9.77388 1.46248 10.2297 2.28769C11.4472 4.49113 12.6998 6.68023 13.9885 8.8531C14.5265 9.76045 15.2191 10.5923 16.1473 11.2447C16.3522 11.3879 16.5779 11.5207 16.8168 11.6124C17.4184 11.8416 17.9894 11.7041 18.1932 11.1711C18.4704 10.4443 18.671 9.68404 18.7871 8.92473C19.0578 7.14728 19.0008 5.37173 18.5844 3.60574C18.3389 2.56563 17.6135 2.0088 16.464 1.79295C16.281 1.75857 16.1144 1.66115 15.9402 1.59238C16.0377 1.44243 16.1078 1.27146 16.236 1.14539C16.7193 0.671655 17.333 0.376527 18.0507 0.284837C20.7542 -0.0628219 23.4631 -0.116308 26.1676 0.259049C27.521 0.447205 27.9757 0.856946 28.1029 2.1492C28.2092 3.22943 28.1007 4.32494 28.0875 5.41376C28.07 6.82923 28.0316 8.24565 28.0492 9.66016C28.0547 10.0728 28.1599 10.5045 28.3286 10.8913C28.6902 11.7165 29.4825 11.8827 30.1861 11.2523C30.9553 10.5637 31.7093 9.84641 32.3427 9.06322C34.0401 6.96581 35.3847 4.69647 36.4729 2.31062C36.9463 1.27146 37.172 1.15971 38.4618 1.15016C40.9768 1.13297 43.4917 1.09954 46.0067 1.08235C46.3321 1.08044 46.6642 1.10623 46.9809 1.1664C47.451 1.25618 47.8543 1.4472 47.9989 1.8961C47.9989 2.08712 47.9989 2.27719 47.9989 2.46821C47.6965 3.08807 47.4444 3.73182 47.0817 4.32494C45.8741 6.30105 44.25 8.0298 42.7203 9.81489C41.9291 10.7394 41.1587 11.6802 40.4398 12.6477C40.0157 13.2179 40.0683 13.8559 40.5297 14.4118C40.8486 14.7939 41.2288 15.1406 41.6113 15.4777C42.9372 16.6477 44.3289 17.7652 45.5957 18.981C46.6543 19.9973 47.748 21.0326 47.9989 22.4863C48 22.5121 48 22.5398 48 22.5665Z" fill="white"/>
</svg>
