<svg width="830" height="74" viewBox="0 0 830 74" fill="none" xmlns="http://www.w3.org/2000/svg">
<path d="M39.8125 46.5938C39.8125 50.5104 38.3854 53.5625 35.5312 55.75C32.6771 57.9167 28.7083 59 23.625 59H5.75V14.9688H21.75C32.0833 14.9688 37.25 18.5312 37.25 25.6562C37.25 28.2604 36.5208 30.4479 35.0625 32.2188C33.6042 33.9896 31.5417 35.1771 28.875 35.7812C32.375 36.1979 35.0729 37.375 36.9688 39.3125C38.8646 41.2292 39.8125 43.6562 39.8125 46.5938ZM31.25 26.375C31.25 24 30.4375 22.3021 28.8125 21.2812C27.1875 20.2604 24.8333 19.75 21.75 19.75H11.7188V33.6875H21.75C24.9375 33.6875 27.3125 33.0938 28.875 31.9062C30.4583 30.6979 31.25 28.8542 31.25 26.375ZM33.7812 46.125C33.7812 40.9375 30.1354 38.3438 22.8438 38.3438H11.7188V54.2188H23.3125C26.9583 54.2188 29.6146 53.5417 31.2812 52.1875C32.9479 50.8333 33.7812 48.8125 33.7812 46.125ZM81.875 46.0938C81.875 49.9896 80.5312 53.1146 77.8438 55.4688C75.1562 57.8229 71.4479 59 66.7188 59H48.4375V14.9688H54.4062V33.5938H66.3438C71.2604 33.5938 75.0729 34.6875 77.7812 36.875C80.5104 39.0625 81.875 42.1354 81.875 46.0938ZM75.875 46.1562C75.875 43.6354 75.0208 41.7083 73.3125 40.375C71.6042 39.0208 69.0417 38.3438 65.625 38.3438H54.4062V54.2812H65.875C69.2917 54.2812 71.8125 53.5729 73.4375 52.1562C75.0625 50.7396 75.875 48.7396 75.875 46.1562ZM88.625 59V14.9688H94.5938V59H88.625ZM128.062 59.625C126.771 59.625 125.417 59.4271 124 59.0312C122.604 58.6354 121.427 58.1042 120.469 57.4375L123 52.9375C124.958 54.1667 126.688 54.7812 128.188 54.7812C129.25 54.7812 130.135 54.5833 130.844 54.1875C131.573 53.7708 132.302 53.0729 133.031 52.0938C133.76 51.0938 135.188 48.6562 137.312 44.7812L119.406 14.9688H126.219L140.25 39.4688L152.25 14.9688H158.656L140.625 49.0625C138.854 52.3958 137.417 54.6979 136.312 55.9688C135.208 57.2396 134 58.1667 132.688 58.75C131.396 59.3333 129.854 59.625 128.062 59.625ZM183.125 19.1875C178.25 19.1875 174.458 20.7604 171.75 23.9062C169.042 27.0312 167.688 31.3229 167.688 36.7812C167.688 42.1771 169.094 46.5208 171.906 49.8125C174.74 53.0833 178.562 54.7188 183.375 54.7188C189.542 54.7188 194.177 51.6667 197.281 45.5625L202.156 48C200.344 51.7917 197.792 54.6771 194.5 56.6562C191.229 58.6354 187.427 59.625 183.094 59.625C178.656 59.625 174.812 58.7083 171.562 56.875C168.333 55.0208 165.865 52.3854 164.156 48.9688C162.469 45.5312 161.625 41.4688 161.625 36.7812C161.625 29.7604 163.521 24.2604 167.312 20.2812C171.104 16.3021 176.354 14.3125 183.062 14.3125C187.75 14.3125 191.667 15.2292 194.812 17.0625C197.958 18.8958 200.271 21.6146 201.75 25.2188L196.094 27.0938C195.073 24.5312 193.427 22.5729 191.156 21.2188C188.906 19.8646 186.229 19.1875 183.125 19.1875ZM239.594 59V20H215.781V59H209.812V14.9688H245.562V59H239.594ZM255.875 59V14.9688H289.281V19.8438H261.844V33.9688H287.406V38.7812H261.844V54.125H290.562V59H255.875ZM298.562 59V14.9688H304.531V54H319.812V14.9688H325.625V54H340.906V14.9688H346.719V59H298.562ZM387.031 59V38.5938H363.219V59H357.25V14.9688H363.219V33.5938H387.031V14.9688H393V59H387.031ZM444.969 36.7812C444.969 41.3854 444.083 45.4167 442.312 48.875C440.562 52.3333 438.042 54.9896 434.75 56.8438C431.458 58.6979 427.573 59.625 423.094 59.625C418.573 59.625 414.667 58.7083 411.375 56.875C408.104 55.0417 405.604 52.3958 403.875 48.9375C402.146 45.4583 401.281 41.4062 401.281 36.7812C401.281 29.7396 403.208 24.2396 407.062 20.2812C410.917 16.3021 416.281 14.3125 423.156 14.3125C427.635 14.3125 431.521 15.2083 434.812 17C438.104 18.7708 440.615 21.3542 442.344 24.75C444.094 28.1458 444.969 32.1562 444.969 36.7812ZM438.875 36.7812C438.875 31.3021 437.5 27 434.75 23.875C432.021 20.75 428.156 19.1875 423.156 19.1875C418.115 19.1875 414.219 20.7292 411.469 23.8125C408.719 26.8958 407.344 31.2188 407.344 36.7812C407.344 42.3021 408.729 46.6875 411.5 49.9375C414.292 53.1667 418.156 54.7812 423.094 54.7812C428.177 54.7812 432.073 53.2188 434.781 50.0938C437.51 46.9479 438.875 42.5104 438.875 36.7812ZM485.281 59.625C481.031 59.625 477.531 58.7917 474.781 57.125C472.031 55.4375 469.76 52.6458 467.969 48.75L473.125 46.3438C475.604 52.0104 479.583 54.8438 485.062 54.8438C488.25 54.8438 490.76 54.1042 492.594 52.625C494.427 51.1458 495.344 49.0729 495.344 46.4062C495.344 43.6354 494.344 41.6354 492.344 40.4062C490.344 39.1771 487.24 38.5625 483.031 38.5625H480.812V33.9375H483.031C486.802 33.9375 489.583 33.3229 491.375 32.0938C493.188 30.8438 494.094 28.9375 494.094 26.375C494.094 24.1458 493.333 22.3958 491.812 21.125C490.312 19.8333 488.156 19.1875 485.344 19.1875C482.719 19.1875 480.51 19.8021 478.719 21.0312C476.927 22.2396 475.5 24.1979 474.438 26.9062L468.875 25C470.333 21.3958 472.438 18.7188 475.188 16.9688C477.938 15.2188 481.396 14.3438 485.562 14.3438C489.979 14.3438 493.5 15.3854 496.125 17.4688C498.75 19.5312 500.062 22.3229 500.062 25.8438C500.062 28.4896 499.312 30.6771 497.812 32.4062C496.312 34.1354 494.146 35.3333 491.312 36C494.479 36.4792 496.948 37.6354 498.719 39.4688C500.49 41.2812 501.375 43.5625 501.375 46.3125C501.375 50.375 499.927 53.6146 497.031 56.0312C494.156 58.4271 490.24 59.625 485.281 59.625ZM541.031 59L536 46.125H515.938L510.875 59H504.688L522.656 14.9688H529.438L547.125 59H541.031ZM525.969 19.4688L525.688 20.3438C525.167 22.0729 524.396 24.2917 523.375 27L517.75 41.4688H534.219L528.562 26.9375C527.979 25.5 527.396 23.875 526.812 22.0625L525.969 19.4688ZM581.469 59V20H557.656V59H551.688V14.9688H587.438V59H581.469ZM597.75 59V14.9688H603.125V43.8438C603.125 46.2188 603.042 49.0729 602.875 52.4062L626.312 14.9688H633.25V59H627.938V29.75C627.938 27.2083 628 24.5625 628.125 21.8125L604.938 59H597.75ZM663.25 19.1875C658.375 19.1875 654.583 20.7604 651.875 23.9062C649.167 27.0312 647.812 31.3229 647.812 36.7812C647.812 42.1771 649.219 46.5208 652.031 49.8125C654.865 53.0833 658.688 54.7188 663.5 54.7188C669.667 54.7188 674.302 51.6667 677.406 45.5625L682.281 48C680.469 51.7917 677.917 54.6771 674.625 56.6562C671.354 58.6354 667.552 59.625 663.219 59.625C658.781 59.625 654.938 58.7083 651.688 56.875C648.458 55.0208 645.99 52.3854 644.281 48.9688C642.594 45.5312 641.75 41.4688 641.75 36.7812C641.75 29.7604 643.646 24.2604 647.438 20.2812C651.229 16.3021 656.479 14.3125 663.188 14.3125C667.875 14.3125 671.792 15.2292 674.938 17.0625C678.083 18.8958 680.396 21.6146 681.875 25.2188L676.219 27.0938C675.198 24.5312 673.552 22.5729 671.281 21.2188C669.031 19.8646 666.354 19.1875 663.25 19.1875ZM719.781 59L714.75 46.125H694.688L689.625 59H683.438L701.406 14.9688H708.188L725.875 59H719.781ZM704.719 19.4688L704.438 20.3438C703.917 22.0729 703.146 24.2917 702.125 27L696.5 41.4688H712.969L707.312 26.9375C706.729 25.5 706.146 23.875 705.562 22.0625L704.719 19.4688ZM761.031 59V38.5938H737.219V59H731.25V14.9688H737.219V33.5938H761.031V14.9688H767V59H761.031ZM810.938 46.0938C810.938 49.9896 809.594 53.1146 806.906 55.4688C804.219 57.8229 800.51 59 795.781 59H777.5V14.9688H783.469V33.5938H795.406C800.323 33.5938 804.135 34.6875 806.844 36.875C809.573 39.0625 810.938 42.1354 810.938 46.0938ZM804.938 46.1562C804.938 43.6354 804.083 41.7083 802.375 40.375C800.667 39.0208 798.104 38.3438 794.688 38.3438H783.469V54.2812H794.938C798.354 54.2812 800.875 53.5729 802.5 52.1562C804.125 50.7396 804.938 48.7396 804.938 46.1562ZM817.688 59V14.9688H823.656V59H817.688Z" fill="white"/>
</svg>
